<mxfile host="app.diagrams.net" modified="2022-01-21T11:50:00.184Z" agent="5.0 (Windows NT 10.0; Win64; x64) AppleWebKit/537.36 (KHTML, like Gecko) Chrome/96.0.4664.110 Safari/537.36 OPR/82.0.4227.50" etag="-w13LIr7nEF7zPKfnkjA" version="16.4.3" type="github">
  <diagram id="JPool-3VtNPLsI39yBrT" name="Page-1">
    <mxGraphModel dx="867" dy="507" grid="1" gridSize="10" guides="1" tooltips="1" connect="1" arrows="1" fold="1" page="1" pageScale="1" pageWidth="827" pageHeight="1169" math="0" shadow="0">
      <root>
        <mxCell id="0" />
        <mxCell id="1" parent="0" />
        <mxCell id="ydXOMkTpQAnUlT9arwQ4-1" value="CharacterStats" style="swimlane;fontStyle=1;align=center;verticalAlign=top;childLayout=stackLayout;horizontal=1;startSize=26;horizontalStack=0;resizeParent=1;resizeParentMax=0;resizeLast=0;collapsible=1;marginBottom=0;" parent="1" vertex="1">
          <mxGeometry x="70" y="60" width="180" height="606" as="geometry" />
        </mxCell>
        <mxCell id="ydXOMkTpQAnUlT9arwQ4-2" value="+ BarSystem: barSystem" style="text;strokeColor=none;fillColor=none;align=left;verticalAlign=top;spacingLeft=4;spacingRight=4;overflow=hidden;rotatable=0;points=[[0,0.5],[1,0.5]];portConstraint=eastwest;" parent="ydXOMkTpQAnUlT9arwQ4-1" vertex="1">
          <mxGeometry y="26" width="180" height="26" as="geometry" />
        </mxCell>
        <mxCell id="ydXOMkTpQAnUlT9arwQ4-5" value="+ MaxHealth: int" style="text;strokeColor=none;fillColor=none;align=left;verticalAlign=top;spacingLeft=4;spacingRight=4;overflow=hidden;rotatable=0;points=[[0,0.5],[1,0.5]];portConstraint=eastwest;" parent="ydXOMkTpQAnUlT9arwQ4-1" vertex="1">
          <mxGeometry y="52" width="180" height="26" as="geometry" />
        </mxCell>
        <mxCell id="ydXOMkTpQAnUlT9arwQ4-6" value="+ currentHealth: int" style="text;strokeColor=none;fillColor=none;align=left;verticalAlign=top;spacingLeft=4;spacingRight=4;overflow=hidden;rotatable=0;points=[[0,0.5],[1,0.5]];portConstraint=eastwest;" parent="ydXOMkTpQAnUlT9arwQ4-1" vertex="1">
          <mxGeometry y="78" width="180" height="26" as="geometry" />
        </mxCell>
        <mxCell id="ydXOMkTpQAnUlT9arwQ4-7" value="+ speed: float" style="text;strokeColor=none;fillColor=none;align=left;verticalAlign=top;spacingLeft=4;spacingRight=4;overflow=hidden;rotatable=0;points=[[0,0.5],[1,0.5]];portConstraint=eastwest;" parent="ydXOMkTpQAnUlT9arwQ4-1" vertex="1">
          <mxGeometry y="104" width="180" height="26" as="geometry" />
        </mxCell>
        <mxCell id="ydXOMkTpQAnUlT9arwQ4-8" value="+ jumpHeight: float" style="text;strokeColor=none;fillColor=none;align=left;verticalAlign=top;spacingLeft=4;spacingRight=4;overflow=hidden;rotatable=0;points=[[0,0.5],[1,0.5]];portConstraint=eastwest;" parent="ydXOMkTpQAnUlT9arwQ4-1" vertex="1">
          <mxGeometry y="130" width="180" height="26" as="geometry" />
        </mxCell>
        <mxCell id="ydXOMkTpQAnUlT9arwQ4-10" value="+ MaxStamina: float" style="text;strokeColor=none;fillColor=none;align=left;verticalAlign=top;spacingLeft=4;spacingRight=4;overflow=hidden;rotatable=0;points=[[0,0.5],[1,0.5]];portConstraint=eastwest;" parent="ydXOMkTpQAnUlT9arwQ4-1" vertex="1">
          <mxGeometry y="156" width="180" height="26" as="geometry" />
        </mxCell>
        <mxCell id="ydXOMkTpQAnUlT9arwQ4-9" value="+ currentStamina: float" style="text;strokeColor=none;fillColor=none;align=left;verticalAlign=top;spacingLeft=4;spacingRight=4;overflow=hidden;rotatable=0;points=[[0,0.5],[1,0.5]];portConstraint=eastwest;" parent="ydXOMkTpQAnUlT9arwQ4-1" vertex="1">
          <mxGeometry y="182" width="180" height="26" as="geometry" />
        </mxCell>
        <mxCell id="ydXOMkTpQAnUlT9arwQ4-11" value="+ staminaRegeneration: float" style="text;strokeColor=none;fillColor=none;align=left;verticalAlign=top;spacingLeft=4;spacingRight=4;overflow=hidden;rotatable=0;points=[[0,0.5],[1,0.5]];portConstraint=eastwest;" parent="ydXOMkTpQAnUlT9arwQ4-1" vertex="1">
          <mxGeometry y="208" width="180" height="26" as="geometry" />
        </mxCell>
        <mxCell id="ydXOMkTpQAnUlT9arwQ4-3" value="" style="line;strokeWidth=1;fillColor=none;align=left;verticalAlign=middle;spacingTop=-1;spacingLeft=3;spacingRight=3;rotatable=0;labelPosition=right;points=[];portConstraint=eastwest;" parent="ydXOMkTpQAnUlT9arwQ4-1" vertex="1">
          <mxGeometry y="234" width="180" height="8" as="geometry" />
        </mxCell>
        <mxCell id="ydXOMkTpQAnUlT9arwQ4-4" value="+ UpdateStamina(): void" style="text;strokeColor=none;fillColor=none;align=left;verticalAlign=top;spacingLeft=4;spacingRight=4;overflow=hidden;rotatable=0;points=[[0,0.5],[1,0.5]];portConstraint=eastwest;fontStyle=2" parent="ydXOMkTpQAnUlT9arwQ4-1" vertex="1">
          <mxGeometry y="242" width="180" height="26" as="geometry" />
        </mxCell>
        <mxCell id="ydXOMkTpQAnUlT9arwQ4-15" value="+ UpdateStats(): void" style="text;strokeColor=none;fillColor=none;align=left;verticalAlign=top;spacingLeft=4;spacingRight=4;overflow=hidden;rotatable=0;points=[[0,0.5],[1,0.5]];portConstraint=eastwest;fontStyle=2" parent="ydXOMkTpQAnUlT9arwQ4-1" vertex="1">
          <mxGeometry y="268" width="180" height="26" as="geometry" />
        </mxCell>
        <mxCell id="ydXOMkTpQAnUlT9arwQ4-16" value="+ TakeDamage(int): void" style="text;strokeColor=none;fillColor=none;align=left;verticalAlign=top;spacingLeft=4;spacingRight=4;overflow=hidden;rotatable=0;points=[[0,0.5],[1,0.5]];portConstraint=eastwest;fontStyle=2" parent="ydXOMkTpQAnUlT9arwQ4-1" vertex="1">
          <mxGeometry y="294" width="180" height="26" as="geometry" />
        </mxCell>
        <mxCell id="ydXOMkTpQAnUlT9arwQ4-18" value="+ TakeHeal(int): void" style="text;strokeColor=none;fillColor=none;align=left;verticalAlign=top;spacingLeft=4;spacingRight=4;overflow=hidden;rotatable=0;points=[[0,0.5],[1,0.5]];portConstraint=eastwest;fontStyle=2" parent="ydXOMkTpQAnUlT9arwQ4-1" vertex="1">
          <mxGeometry y="320" width="180" height="26" as="geometry" />
        </mxCell>
        <mxCell id="ydXOMkTpQAnUlT9arwQ4-19" value="+ TryUseStamina(float): bool" style="text;strokeColor=none;fillColor=none;align=left;verticalAlign=top;spacingLeft=4;spacingRight=4;overflow=hidden;rotatable=0;points=[[0,0.5],[1,0.5]];portConstraint=eastwest;fontStyle=2" parent="ydXOMkTpQAnUlT9arwQ4-1" vertex="1">
          <mxGeometry y="346" width="180" height="26" as="geometry" />
        </mxCell>
        <mxCell id="ydXOMkTpQAnUlT9arwQ4-21" value="+ GetCurrentStamina(): float" style="text;strokeColor=none;fillColor=none;align=left;verticalAlign=top;spacingLeft=4;spacingRight=4;overflow=hidden;rotatable=0;points=[[0,0.5],[1,0.5]];portConstraint=eastwest;fontStyle=2" parent="ydXOMkTpQAnUlT9arwQ4-1" vertex="1">
          <mxGeometry y="372" width="180" height="26" as="geometry" />
        </mxCell>
        <mxCell id="ydXOMkTpQAnUlT9arwQ4-20" value="+ GetMaxStamina(): float" style="text;strokeColor=none;fillColor=none;align=left;verticalAlign=top;spacingLeft=4;spacingRight=4;overflow=hidden;rotatable=0;points=[[0,0.5],[1,0.5]];portConstraint=eastwest;fontStyle=2" parent="ydXOMkTpQAnUlT9arwQ4-1" vertex="1">
          <mxGeometry y="398" width="180" height="26" as="geometry" />
        </mxCell>
        <mxCell id="ydXOMkTpQAnUlT9arwQ4-22" value="+ GetCurrentHealth(): int" style="text;strokeColor=none;fillColor=none;align=left;verticalAlign=top;spacingLeft=4;spacingRight=4;overflow=hidden;rotatable=0;points=[[0,0.5],[1,0.5]];portConstraint=eastwest;fontStyle=2" parent="ydXOMkTpQAnUlT9arwQ4-1" vertex="1">
          <mxGeometry y="424" width="180" height="26" as="geometry" />
        </mxCell>
        <mxCell id="ydXOMkTpQAnUlT9arwQ4-23" value="+ GetMaxHealth(): int" style="text;strokeColor=none;fillColor=none;align=left;verticalAlign=top;spacingLeft=4;spacingRight=4;overflow=hidden;rotatable=0;points=[[0,0.5],[1,0.5]];portConstraint=eastwest;fontStyle=2" parent="ydXOMkTpQAnUlT9arwQ4-1" vertex="1">
          <mxGeometry y="450" width="180" height="26" as="geometry" />
        </mxCell>
        <mxCell id="ydXOMkTpQAnUlT9arwQ4-25" value="+ SetMaxHealth(int): void" style="text;strokeColor=none;fillColor=none;align=left;verticalAlign=top;spacingLeft=4;spacingRight=4;overflow=hidden;rotatable=0;points=[[0,0.5],[1,0.5]];portConstraint=eastwest;fontStyle=2" parent="ydXOMkTpQAnUlT9arwQ4-1" vertex="1">
          <mxGeometry y="476" width="180" height="26" as="geometry" />
        </mxCell>
        <mxCell id="ydXOMkTpQAnUlT9arwQ4-24" value="+ SetMaxStamina(int): void" style="text;strokeColor=none;fillColor=none;align=left;verticalAlign=top;spacingLeft=4;spacingRight=4;overflow=hidden;rotatable=0;points=[[0,0.5],[1,0.5]];portConstraint=eastwest;fontStyle=2" parent="ydXOMkTpQAnUlT9arwQ4-1" vertex="1">
          <mxGeometry y="502" width="180" height="26" as="geometry" />
        </mxCell>
        <mxCell id="ydXOMkTpQAnUlT9arwQ4-26" value="+ SetStaminaRegen(float): void" style="text;strokeColor=none;fillColor=none;align=left;verticalAlign=top;spacingLeft=4;spacingRight=4;overflow=hidden;rotatable=0;points=[[0,0.5],[1,0.5]];portConstraint=eastwest;fontStyle=2" parent="ydXOMkTpQAnUlT9arwQ4-1" vertex="1">
          <mxGeometry y="528" width="180" height="26" as="geometry" />
        </mxCell>
        <mxCell id="ydXOMkTpQAnUlT9arwQ4-27" value="+ SetSprintSpeed(float): void" style="text;strokeColor=none;fillColor=none;align=left;verticalAlign=top;spacingLeft=4;spacingRight=4;overflow=hidden;rotatable=0;points=[[0,0.5],[1,0.5]];portConstraint=eastwest;fontStyle=2" parent="ydXOMkTpQAnUlT9arwQ4-1" vertex="1">
          <mxGeometry y="554" width="180" height="26" as="geometry" />
        </mxCell>
        <mxCell id="ydXOMkTpQAnUlT9arwQ4-17" value="+ Iniciate(): void" style="text;strokeColor=none;fillColor=none;align=left;verticalAlign=top;spacingLeft=4;spacingRight=4;overflow=hidden;rotatable=0;points=[[0,0.5],[1,0.5]];portConstraint=eastwest;fontStyle=2" parent="ydXOMkTpQAnUlT9arwQ4-1" vertex="1">
          <mxGeometry y="580" width="180" height="26" as="geometry" />
        </mxCell>
        <mxCell id="ydXOMkTpQAnUlT9arwQ4-28" value="Buff : CharacterStats" style="swimlane;fontStyle=1;align=center;verticalAlign=top;childLayout=stackLayout;horizontal=1;startSize=26;horizontalStack=0;resizeParent=1;resizeParentMax=0;resizeLast=0;collapsible=1;marginBottom=0;" parent="1" vertex="1">
          <mxGeometry x="370" y="60" width="180" height="450" as="geometry" />
        </mxCell>
        <mxCell id="ydXOMkTpQAnUlT9arwQ4-52" value="+ Stats: CharacterStats" style="text;strokeColor=none;fillColor=none;align=left;verticalAlign=top;spacingLeft=4;spacingRight=4;overflow=hidden;rotatable=0;points=[[0,0.5],[1,0.5]];portConstraint=eastwest;" parent="ydXOMkTpQAnUlT9arwQ4-28" vertex="1">
          <mxGeometry y="26" width="180" height="26" as="geometry" />
        </mxCell>
        <mxCell id="ydXOMkTpQAnUlT9arwQ4-37" value="" style="line;strokeWidth=1;fillColor=none;align=left;verticalAlign=middle;spacingTop=-1;spacingLeft=3;spacingRight=3;rotatable=0;labelPosition=right;points=[];portConstraint=eastwest;" parent="ydXOMkTpQAnUlT9arwQ4-28" vertex="1">
          <mxGeometry y="52" width="180" height="8" as="geometry" />
        </mxCell>
        <mxCell id="ydXOMkTpQAnUlT9arwQ4-53" value="+ Buff(CharacterStats)" style="text;strokeColor=none;fillColor=none;align=left;verticalAlign=top;spacingLeft=4;spacingRight=4;overflow=hidden;rotatable=0;points=[[0,0.5],[1,0.5]];portConstraint=eastwest;fontStyle=0" parent="ydXOMkTpQAnUlT9arwQ4-28" vertex="1">
          <mxGeometry y="60" width="180" height="26" as="geometry" />
        </mxCell>
        <mxCell id="ydXOMkTpQAnUlT9arwQ4-38" value="+ UpdateStamina(): void" style="text;strokeColor=none;fillColor=none;align=left;verticalAlign=top;spacingLeft=4;spacingRight=4;overflow=hidden;rotatable=0;points=[[0,0.5],[1,0.5]];portConstraint=eastwest;fontStyle=0" parent="ydXOMkTpQAnUlT9arwQ4-28" vertex="1">
          <mxGeometry y="86" width="180" height="26" as="geometry" />
        </mxCell>
        <mxCell id="ydXOMkTpQAnUlT9arwQ4-39" value="+ UpdateStats(): void" style="text;strokeColor=none;fillColor=none;align=left;verticalAlign=top;spacingLeft=4;spacingRight=4;overflow=hidden;rotatable=0;points=[[0,0.5],[1,0.5]];portConstraint=eastwest;fontStyle=0" parent="ydXOMkTpQAnUlT9arwQ4-28" vertex="1">
          <mxGeometry y="112" width="180" height="26" as="geometry" />
        </mxCell>
        <mxCell id="ydXOMkTpQAnUlT9arwQ4-40" value="+ TakeDamage(int): void" style="text;strokeColor=none;fillColor=none;align=left;verticalAlign=top;spacingLeft=4;spacingRight=4;overflow=hidden;rotatable=0;points=[[0,0.5],[1,0.5]];portConstraint=eastwest;fontStyle=0" parent="ydXOMkTpQAnUlT9arwQ4-28" vertex="1">
          <mxGeometry y="138" width="180" height="26" as="geometry" />
        </mxCell>
        <mxCell id="ydXOMkTpQAnUlT9arwQ4-41" value="+ TakeHeal(int): void" style="text;strokeColor=none;fillColor=none;align=left;verticalAlign=top;spacingLeft=4;spacingRight=4;overflow=hidden;rotatable=0;points=[[0,0.5],[1,0.5]];portConstraint=eastwest;fontStyle=0" parent="ydXOMkTpQAnUlT9arwQ4-28" vertex="1">
          <mxGeometry y="164" width="180" height="26" as="geometry" />
        </mxCell>
        <mxCell id="ydXOMkTpQAnUlT9arwQ4-42" value="+ TryUseStamina(float): bool" style="text;strokeColor=none;fillColor=none;align=left;verticalAlign=top;spacingLeft=4;spacingRight=4;overflow=hidden;rotatable=0;points=[[0,0.5],[1,0.5]];portConstraint=eastwest;fontStyle=0" parent="ydXOMkTpQAnUlT9arwQ4-28" vertex="1">
          <mxGeometry y="190" width="180" height="26" as="geometry" />
        </mxCell>
        <mxCell id="ydXOMkTpQAnUlT9arwQ4-43" value="+ GetCurrentStamina(): float" style="text;strokeColor=none;fillColor=none;align=left;verticalAlign=top;spacingLeft=4;spacingRight=4;overflow=hidden;rotatable=0;points=[[0,0.5],[1,0.5]];portConstraint=eastwest;fontStyle=0" parent="ydXOMkTpQAnUlT9arwQ4-28" vertex="1">
          <mxGeometry y="216" width="180" height="26" as="geometry" />
        </mxCell>
        <mxCell id="ydXOMkTpQAnUlT9arwQ4-44" value="+ GetMaxStamina(): float" style="text;strokeColor=none;fillColor=none;align=left;verticalAlign=top;spacingLeft=4;spacingRight=4;overflow=hidden;rotatable=0;points=[[0,0.5],[1,0.5]];portConstraint=eastwest;fontStyle=0" parent="ydXOMkTpQAnUlT9arwQ4-28" vertex="1">
          <mxGeometry y="242" width="180" height="26" as="geometry" />
        </mxCell>
        <mxCell id="ydXOMkTpQAnUlT9arwQ4-45" value="+ GetCurrentHealth(): int" style="text;strokeColor=none;fillColor=none;align=left;verticalAlign=top;spacingLeft=4;spacingRight=4;overflow=hidden;rotatable=0;points=[[0,0.5],[1,0.5]];portConstraint=eastwest;fontStyle=0" parent="ydXOMkTpQAnUlT9arwQ4-28" vertex="1">
          <mxGeometry y="268" width="180" height="26" as="geometry" />
        </mxCell>
        <mxCell id="ydXOMkTpQAnUlT9arwQ4-46" value="+ GetMaxHealth(): int" style="text;strokeColor=none;fillColor=none;align=left;verticalAlign=top;spacingLeft=4;spacingRight=4;overflow=hidden;rotatable=0;points=[[0,0.5],[1,0.5]];portConstraint=eastwest;fontStyle=0" parent="ydXOMkTpQAnUlT9arwQ4-28" vertex="1">
          <mxGeometry y="294" width="180" height="26" as="geometry" />
        </mxCell>
        <mxCell id="ydXOMkTpQAnUlT9arwQ4-47" value="+ SetMaxHealth(int): void" style="text;strokeColor=none;fillColor=none;align=left;verticalAlign=top;spacingLeft=4;spacingRight=4;overflow=hidden;rotatable=0;points=[[0,0.5],[1,0.5]];portConstraint=eastwest;fontStyle=0" parent="ydXOMkTpQAnUlT9arwQ4-28" vertex="1">
          <mxGeometry y="320" width="180" height="26" as="geometry" />
        </mxCell>
        <mxCell id="ydXOMkTpQAnUlT9arwQ4-48" value="+ SetMaxStamina(int): void" style="text;strokeColor=none;fillColor=none;align=left;verticalAlign=top;spacingLeft=4;spacingRight=4;overflow=hidden;rotatable=0;points=[[0,0.5],[1,0.5]];portConstraint=eastwest;fontStyle=0" parent="ydXOMkTpQAnUlT9arwQ4-28" vertex="1">
          <mxGeometry y="346" width="180" height="26" as="geometry" />
        </mxCell>
        <mxCell id="ydXOMkTpQAnUlT9arwQ4-49" value="+ SetStaminaRegen(float): void" style="text;strokeColor=none;fillColor=none;align=left;verticalAlign=top;spacingLeft=4;spacingRight=4;overflow=hidden;rotatable=0;points=[[0,0.5],[1,0.5]];portConstraint=eastwest;fontStyle=0" parent="ydXOMkTpQAnUlT9arwQ4-28" vertex="1">
          <mxGeometry y="372" width="180" height="26" as="geometry" />
        </mxCell>
        <mxCell id="ydXOMkTpQAnUlT9arwQ4-50" value="+ SetSprintSpeed(float): void" style="text;strokeColor=none;fillColor=none;align=left;verticalAlign=top;spacingLeft=4;spacingRight=4;overflow=hidden;rotatable=0;points=[[0,0.5],[1,0.5]];portConstraint=eastwest;fontStyle=0" parent="ydXOMkTpQAnUlT9arwQ4-28" vertex="1">
          <mxGeometry y="398" width="180" height="26" as="geometry" />
        </mxCell>
        <mxCell id="ydXOMkTpQAnUlT9arwQ4-51" value="+ Iniciate(): void" style="text;strokeColor=none;fillColor=none;align=left;verticalAlign=top;spacingLeft=4;spacingRight=4;overflow=hidden;rotatable=0;points=[[0,0.5],[1,0.5]];portConstraint=eastwest;fontStyle=0" parent="ydXOMkTpQAnUlT9arwQ4-28" vertex="1">
          <mxGeometry y="424" width="180" height="26" as="geometry" />
        </mxCell>
        <mxCell id="ydXOMkTpQAnUlT9arwQ4-54" value="HealthBuff : Buff" style="swimlane;fontStyle=1;childLayout=stackLayout;horizontal=1;startSize=26;fillColor=none;horizontalStack=0;resizeParent=1;resizeParentMax=0;resizeLast=0;collapsible=1;marginBottom=0;" parent="1" vertex="1">
          <mxGeometry x="660" y="60" width="270" height="78" as="geometry" />
        </mxCell>
        <mxCell id="ydXOMkTpQAnUlT9arwQ4-55" value="+ HealthBuff(CharacterStats , int)" style="text;strokeColor=none;fillColor=none;align=left;verticalAlign=top;spacingLeft=4;spacingRight=4;overflow=hidden;rotatable=0;points=[[0,0.5],[1,0.5]];portConstraint=eastwest;" parent="ydXOMkTpQAnUlT9arwQ4-54" vertex="1">
          <mxGeometry y="26" width="270" height="26" as="geometry" />
        </mxCell>
        <mxCell id="ydXOMkTpQAnUlT9arwQ4-58" value="+ HealthBuff(CharacterStats)" style="text;strokeColor=none;fillColor=none;align=left;verticalAlign=top;spacingLeft=4;spacingRight=4;overflow=hidden;rotatable=0;points=[[0,0.5],[1,0.5]];portConstraint=eastwest;" parent="ydXOMkTpQAnUlT9arwQ4-54" vertex="1">
          <mxGeometry y="52" width="270" height="26" as="geometry" />
        </mxCell>
        <mxCell id="ydXOMkTpQAnUlT9arwQ4-59" value="MovementBuff : Buff" style="swimlane;fontStyle=1;childLayout=stackLayout;horizontal=1;startSize=26;fillColor=none;horizontalStack=0;resizeParent=1;resizeParentMax=0;resizeLast=0;collapsible=1;marginBottom=0;" parent="1" vertex="1">
          <mxGeometry x="660" y="170" width="270" height="76" as="geometry" />
        </mxCell>
        <mxCell id="ydXOMkTpQAnUlT9arwQ4-60" value="+ HealthBuff(CharacterStats , int)" style="text;strokeColor=none;fillColor=none;align=left;verticalAlign=top;spacingLeft=4;spacingRight=4;overflow=hidden;rotatable=0;points=[[0,0.5],[1,0.5]];portConstraint=eastwest;" parent="ydXOMkTpQAnUlT9arwQ4-59" vertex="1">
          <mxGeometry y="26" width="270" height="24" as="geometry" />
        </mxCell>
        <mxCell id="ydXOMkTpQAnUlT9arwQ4-61" value="+ UpdateStamina(): void" style="text;strokeColor=none;fillColor=none;align=left;verticalAlign=top;spacingLeft=4;spacingRight=4;overflow=hidden;rotatable=0;points=[[0,0.5],[1,0.5]];portConstraint=eastwest;" parent="ydXOMkTpQAnUlT9arwQ4-59" vertex="1">
          <mxGeometry y="50" width="270" height="26" as="geometry" />
        </mxCell>
        <mxCell id="ydXOMkTpQAnUlT9arwQ4-62" value="HealthBuff : Buff" style="swimlane;fontStyle=1;childLayout=stackLayout;horizontal=1;startSize=26;fillColor=none;horizontalStack=0;resizeParent=1;resizeParentMax=0;resizeLast=0;collapsible=1;marginBottom=0;" parent="1" vertex="1">
          <mxGeometry x="660" y="290" width="270" height="52" as="geometry" />
        </mxCell>
        <mxCell id="ydXOMkTpQAnUlT9arwQ4-64" value="+ StaminaBuff(CharacterStats) " style="text;strokeColor=none;fillColor=none;align=left;verticalAlign=top;spacingLeft=4;spacingRight=4;overflow=hidden;rotatable=0;points=[[0,0.5],[1,0.5]];portConstraint=eastwest;" parent="ydXOMkTpQAnUlT9arwQ4-62" vertex="1">
          <mxGeometry y="26" width="270" height="26" as="geometry" />
        </mxCell>
        <mxCell id="ydXOMkTpQAnUlT9arwQ4-65" value="EnemyAI : MonoBehaviour" style="swimlane;fontStyle=3;align=center;verticalAlign=top;childLayout=stackLayout;horizontal=1;startSize=26;horizontalStack=0;resizeParent=1;resizeParentMax=0;resizeLast=0;collapsible=1;marginBottom=0;" parent="1" vertex="1">
          <mxGeometry x="707" y="430" width="300" height="424" as="geometry" />
        </mxCell>
        <mxCell id="ydXOMkTpQAnUlT9arwQ4-66" value="+ characterStats: CharacterStats" style="text;strokeColor=none;fillColor=none;align=left;verticalAlign=top;spacingLeft=4;spacingRight=4;overflow=hidden;rotatable=0;points=[[0,0.5],[1,0.5]];portConstraint=eastwest;" parent="ydXOMkTpQAnUlT9arwQ4-65" vertex="1">
          <mxGeometry y="26" width="300" height="26" as="geometry" />
        </mxCell>
        <mxCell id="ydXOMkTpQAnUlT9arwQ4-69" value="+ target: Transform" style="text;strokeColor=none;fillColor=none;align=left;verticalAlign=top;spacingLeft=4;spacingRight=4;overflow=hidden;rotatable=0;points=[[0,0.5],[1,0.5]];portConstraint=eastwest;" parent="ydXOMkTpQAnUlT9arwQ4-65" vertex="1">
          <mxGeometry y="52" width="300" height="26" as="geometry" />
        </mxCell>
        <mxCell id="ydXOMkTpQAnUlT9arwQ4-71" value="+ characterController: CharacterController" style="text;strokeColor=none;fillColor=none;align=left;verticalAlign=top;spacingLeft=4;spacingRight=4;overflow=hidden;rotatable=0;points=[[0,0.5],[1,0.5]];portConstraint=eastwest;" parent="ydXOMkTpQAnUlT9arwQ4-65" vertex="1">
          <mxGeometry y="78" width="300" height="26" as="geometry" />
        </mxCell>
        <mxCell id="ydXOMkTpQAnUlT9arwQ4-73" value="+ groundCheck: Transform" style="text;strokeColor=none;fillColor=none;align=left;verticalAlign=top;spacingLeft=4;spacingRight=4;overflow=hidden;rotatable=0;points=[[0,0.5],[1,0.5]];portConstraint=eastwest;" parent="ydXOMkTpQAnUlT9arwQ4-65" vertex="1">
          <mxGeometry y="104" width="300" height="26" as="geometry" />
        </mxCell>
        <mxCell id="ydXOMkTpQAnUlT9arwQ4-72" value="+ groundDistance: float" style="text;strokeColor=none;fillColor=none;align=left;verticalAlign=top;spacingLeft=4;spacingRight=4;overflow=hidden;rotatable=0;points=[[0,0.5],[1,0.5]];portConstraint=eastwest;" parent="ydXOMkTpQAnUlT9arwQ4-65" vertex="1">
          <mxGeometry y="130" width="300" height="26" as="geometry" />
        </mxCell>
        <mxCell id="ydXOMkTpQAnUlT9arwQ4-74" value="+ groundMask: LayerMask" style="text;strokeColor=none;fillColor=none;align=left;verticalAlign=top;spacingLeft=4;spacingRight=4;overflow=hidden;rotatable=0;points=[[0,0.5],[1,0.5]];portConstraint=eastwest;" parent="ydXOMkTpQAnUlT9arwQ4-65" vertex="1">
          <mxGeometry y="156" width="300" height="26" as="geometry" />
        </mxCell>
        <mxCell id="ydXOMkTpQAnUlT9arwQ4-76" value="+ isGrounded : bool" style="text;strokeColor=none;fillColor=none;align=left;verticalAlign=top;spacingLeft=4;spacingRight=4;overflow=hidden;rotatable=0;points=[[0,0.5],[1,0.5]];portConstraint=eastwest;" parent="ydXOMkTpQAnUlT9arwQ4-65" vertex="1">
          <mxGeometry y="182" width="300" height="26" as="geometry" />
        </mxCell>
        <mxCell id="ydXOMkTpQAnUlT9arwQ4-75" value="+ velocity: Vector3" style="text;strokeColor=none;fillColor=none;align=left;verticalAlign=top;spacingLeft=4;spacingRight=4;overflow=hidden;rotatable=0;points=[[0,0.5],[1,0.5]];portConstraint=eastwest;" parent="ydXOMkTpQAnUlT9arwQ4-65" vertex="1">
          <mxGeometry y="208" width="300" height="26" as="geometry" />
        </mxCell>
        <mxCell id="ydXOMkTpQAnUlT9arwQ4-77" value="+ gravity: float" style="text;strokeColor=none;fillColor=none;align=left;verticalAlign=top;spacingLeft=4;spacingRight=4;overflow=hidden;rotatable=0;points=[[0,0.5],[1,0.5]];portConstraint=eastwest;" parent="ydXOMkTpQAnUlT9arwQ4-65" vertex="1">
          <mxGeometry y="234" width="300" height="26" as="geometry" />
        </mxCell>
        <mxCell id="ydXOMkTpQAnUlT9arwQ4-79" value="+ move: Vector3" style="text;strokeColor=none;fillColor=none;align=left;verticalAlign=top;spacingLeft=4;spacingRight=4;overflow=hidden;rotatable=0;points=[[0,0.5],[1,0.5]];portConstraint=eastwest;" parent="ydXOMkTpQAnUlT9arwQ4-65" vertex="1">
          <mxGeometry y="260" width="300" height="26" as="geometry" />
        </mxCell>
        <mxCell id="ydXOMkTpQAnUlT9arwQ4-67" value="" style="line;strokeWidth=1;fillColor=none;align=left;verticalAlign=middle;spacingTop=-1;spacingLeft=3;spacingRight=3;rotatable=0;labelPosition=right;points=[];portConstraint=eastwest;" parent="ydXOMkTpQAnUlT9arwQ4-65" vertex="1">
          <mxGeometry y="286" width="300" height="8" as="geometry" />
        </mxCell>
        <mxCell id="ydXOMkTpQAnUlT9arwQ4-68" value="+ Awake(): void" style="text;strokeColor=none;fillColor=none;align=left;verticalAlign=top;spacingLeft=4;spacingRight=4;overflow=hidden;rotatable=0;points=[[0,0.5],[1,0.5]];portConstraint=eastwest;fontStyle=2" parent="ydXOMkTpQAnUlT9arwQ4-65" vertex="1">
          <mxGeometry y="294" width="300" height="26" as="geometry" />
        </mxCell>
        <mxCell id="ydXOMkTpQAnUlT9arwQ4-80" value="+ Update(): void" style="text;strokeColor=none;fillColor=none;align=left;verticalAlign=top;spacingLeft=4;spacingRight=4;overflow=hidden;rotatable=0;points=[[0,0.5],[1,0.5]];portConstraint=eastwest;" parent="ydXOMkTpQAnUlT9arwQ4-65" vertex="1">
          <mxGeometry y="320" width="300" height="26" as="geometry" />
        </mxCell>
        <mxCell id="ydXOMkTpQAnUlT9arwQ4-82" value="+ IsGrounded(): void" style="text;strokeColor=none;fillColor=none;align=left;verticalAlign=top;spacingLeft=4;spacingRight=4;overflow=hidden;rotatable=0;points=[[0,0.5],[1,0.5]];portConstraint=eastwest;" parent="ydXOMkTpQAnUlT9arwQ4-65" vertex="1">
          <mxGeometry y="346" width="300" height="26" as="geometry" />
        </mxCell>
        <mxCell id="ydXOMkTpQAnUlT9arwQ4-81" value="+ Gravity(): void" style="text;strokeColor=none;fillColor=none;align=left;verticalAlign=top;spacingLeft=4;spacingRight=4;overflow=hidden;rotatable=0;points=[[0,0.5],[1,0.5]];portConstraint=eastwest;" parent="ydXOMkTpQAnUlT9arwQ4-65" vertex="1">
          <mxGeometry y="372" width="300" height="26" as="geometry" />
        </mxCell>
        <mxCell id="ydXOMkTpQAnUlT9arwQ4-83" value="+ EnemyMovement(): void" style="text;strokeColor=none;fillColor=none;align=left;verticalAlign=top;spacingLeft=4;spacingRight=4;overflow=hidden;rotatable=0;points=[[0,0.5],[1,0.5]];portConstraint=eastwest;fontStyle=2" parent="ydXOMkTpQAnUlT9arwQ4-65" vertex="1">
          <mxGeometry y="398" width="300" height="26" as="geometry" />
        </mxCell>
        <mxCell id="ydXOMkTpQAnUlT9arwQ4-84" value="WalkingEnemyAI : EnemyAI" style="swimlane;fontStyle=1;align=center;verticalAlign=top;childLayout=stackLayout;horizontal=1;startSize=26;horizontalStack=0;resizeParent=1;resizeParentMax=0;resizeLast=0;collapsible=1;marginBottom=0;" parent="1" vertex="1">
          <mxGeometry x="1160" y="400" width="190" height="268" as="geometry" />
        </mxCell>
        <mxCell id="ydXOMkTpQAnUlT9arwQ4-85" value="+ Direction: Vector3" style="text;strokeColor=none;fillColor=none;align=left;verticalAlign=top;spacingLeft=4;spacingRight=4;overflow=hidden;rotatable=0;points=[[0,0.5],[1,0.5]];portConstraint=eastwest;" parent="ydXOMkTpQAnUlT9arwQ4-84" vertex="1">
          <mxGeometry y="26" width="190" height="26" as="geometry" />
        </mxCell>
        <mxCell id="OuygbYaT5pNPhC3rYNPg-12" value="+ angle: float" style="text;strokeColor=none;fillColor=none;align=left;verticalAlign=top;spacingLeft=4;spacingRight=4;overflow=hidden;rotatable=0;points=[[0,0.5],[1,0.5]];portConstraint=eastwest;" vertex="1" parent="ydXOMkTpQAnUlT9arwQ4-84">
          <mxGeometry y="52" width="190" height="26" as="geometry" />
        </mxCell>
        <mxCell id="ydXOMkTpQAnUlT9arwQ4-89" value="+ angle: float" style="text;strokeColor=none;fillColor=none;align=left;verticalAlign=top;spacingLeft=4;spacingRight=4;overflow=hidden;rotatable=0;points=[[0,0.5],[1,0.5]];portConstraint=eastwest;" parent="ydXOMkTpQAnUlT9arwQ4-84" vertex="1">
          <mxGeometry y="78" width="190" height="26" as="geometry" />
        </mxCell>
        <mxCell id="ydXOMkTpQAnUlT9arwQ4-88" value="+ homePosition: Vector3" style="text;strokeColor=none;fillColor=none;align=left;verticalAlign=top;spacingLeft=4;spacingRight=4;overflow=hidden;rotatable=0;points=[[0,0.5],[1,0.5]];portConstraint=eastwest;" parent="ydXOMkTpQAnUlT9arwQ4-84" vertex="1">
          <mxGeometry y="104" width="190" height="26" as="geometry" />
        </mxCell>
        <mxCell id="ydXOMkTpQAnUlT9arwQ4-86" value="" style="line;strokeWidth=1;fillColor=none;align=left;verticalAlign=middle;spacingTop=-1;spacingLeft=3;spacingRight=3;rotatable=0;labelPosition=right;points=[];portConstraint=eastwest;" parent="ydXOMkTpQAnUlT9arwQ4-84" vertex="1">
          <mxGeometry y="130" width="190" height="8" as="geometry" />
        </mxCell>
        <mxCell id="ydXOMkTpQAnUlT9arwQ4-87" value="+ Awake(): void" style="text;strokeColor=none;fillColor=none;align=left;verticalAlign=top;spacingLeft=4;spacingRight=4;overflow=hidden;rotatable=0;points=[[0,0.5],[1,0.5]];portConstraint=eastwest;" parent="ydXOMkTpQAnUlT9arwQ4-84" vertex="1">
          <mxGeometry y="138" width="190" height="26" as="geometry" />
        </mxCell>
        <mxCell id="ydXOMkTpQAnUlT9arwQ4-91" value="+ EnemyMovement(): void" style="text;strokeColor=none;fillColor=none;align=left;verticalAlign=top;spacingLeft=4;spacingRight=4;overflow=hidden;rotatable=0;points=[[0,0.5],[1,0.5]];portConstraint=eastwest;" parent="ydXOMkTpQAnUlT9arwQ4-84" vertex="1">
          <mxGeometry y="164" width="190" height="26" as="geometry" />
        </mxCell>
        <mxCell id="ydXOMkTpQAnUlT9arwQ4-94" value="+ LookAtPlayer(): void" style="text;strokeColor=none;fillColor=none;align=left;verticalAlign=top;spacingLeft=4;spacingRight=4;overflow=hidden;rotatable=0;points=[[0,0.5],[1,0.5]];portConstraint=eastwest;" parent="ydXOMkTpQAnUlT9arwQ4-84" vertex="1">
          <mxGeometry y="190" width="190" height="26" as="geometry" />
        </mxCell>
        <mxCell id="ydXOMkTpQAnUlT9arwQ4-93" value="+ WalkForward(): void" style="text;strokeColor=none;fillColor=none;align=left;verticalAlign=top;spacingLeft=4;spacingRight=4;overflow=hidden;rotatable=0;points=[[0,0.5],[1,0.5]];portConstraint=eastwest;" parent="ydXOMkTpQAnUlT9arwQ4-84" vertex="1">
          <mxGeometry y="216" width="190" height="26" as="geometry" />
        </mxCell>
        <mxCell id="ydXOMkTpQAnUlT9arwQ4-92" value="+ LookAtHome(): void" style="text;strokeColor=none;fillColor=none;align=left;verticalAlign=top;spacingLeft=4;spacingRight=4;overflow=hidden;rotatable=0;points=[[0,0.5],[1,0.5]];portConstraint=eastwest;" parent="ydXOMkTpQAnUlT9arwQ4-84" vertex="1">
          <mxGeometry y="242" width="190" height="26" as="geometry" />
        </mxCell>
        <mxCell id="ydXOMkTpQAnUlT9arwQ4-95" value="FlyingEnemyAI : EnemyAI" style="swimlane;fontStyle=1;align=center;verticalAlign=top;childLayout=stackLayout;horizontal=1;startSize=26;horizontalStack=0;resizeParent=1;resizeParentMax=0;resizeLast=0;collapsible=1;marginBottom=0;" parent="1" vertex="1">
          <mxGeometry x="1160" y="680" width="190" height="216" as="geometry" />
        </mxCell>
        <mxCell id="ydXOMkTpQAnUlT9arwQ4-96" value="+ inCorrectHeight: int" style="text;strokeColor=none;fillColor=none;align=left;verticalAlign=top;spacingLeft=4;spacingRight=4;overflow=hidden;rotatable=0;points=[[0,0.5],[1,0.5]];portConstraint=eastwest;" parent="ydXOMkTpQAnUlT9arwQ4-95" vertex="1">
          <mxGeometry y="26" width="190" height="26" as="geometry" />
        </mxCell>
        <mxCell id="ydXOMkTpQAnUlT9arwQ4-97" value="+ IsTired: bool" style="text;strokeColor=none;fillColor=none;align=left;verticalAlign=top;spacingLeft=4;spacingRight=4;overflow=hidden;rotatable=0;points=[[0,0.5],[1,0.5]];portConstraint=eastwest;" parent="ydXOMkTpQAnUlT9arwQ4-95" vertex="1">
          <mxGeometry y="52" width="190" height="26" as="geometry" />
        </mxCell>
        <mxCell id="ydXOMkTpQAnUlT9arwQ4-99" value="" style="line;strokeWidth=1;fillColor=none;align=left;verticalAlign=middle;spacingTop=-1;spacingLeft=3;spacingRight=3;rotatable=0;labelPosition=right;points=[];portConstraint=eastwest;" parent="ydXOMkTpQAnUlT9arwQ4-95" vertex="1">
          <mxGeometry y="78" width="190" height="8" as="geometry" />
        </mxCell>
        <mxCell id="ydXOMkTpQAnUlT9arwQ4-100" value="+ Awake(): void" style="text;strokeColor=none;fillColor=none;align=left;verticalAlign=top;spacingLeft=4;spacingRight=4;overflow=hidden;rotatable=0;points=[[0,0.5],[1,0.5]];portConstraint=eastwest;" parent="ydXOMkTpQAnUlT9arwQ4-95" vertex="1">
          <mxGeometry y="86" width="190" height="26" as="geometry" />
        </mxCell>
        <mxCell id="ydXOMkTpQAnUlT9arwQ4-101" value="+ EnemyMovement(): void" style="text;strokeColor=none;fillColor=none;align=left;verticalAlign=top;spacingLeft=4;spacingRight=4;overflow=hidden;rotatable=0;points=[[0,0.5],[1,0.5]];portConstraint=eastwest;" parent="ydXOMkTpQAnUlT9arwQ4-95" vertex="1">
          <mxGeometry y="112" width="190" height="26" as="geometry" />
        </mxCell>
        <mxCell id="ydXOMkTpQAnUlT9arwQ4-102" value="+ ActionMove(): void" style="text;strokeColor=none;fillColor=none;align=left;verticalAlign=top;spacingLeft=4;spacingRight=4;overflow=hidden;rotatable=0;points=[[0,0.5],[1,0.5]];portConstraint=eastwest;" parent="ydXOMkTpQAnUlT9arwQ4-95" vertex="1">
          <mxGeometry y="138" width="190" height="26" as="geometry" />
        </mxCell>
        <mxCell id="ydXOMkTpQAnUlT9arwQ4-103" value="+ StateFlying(): void" style="text;strokeColor=none;fillColor=none;align=left;verticalAlign=top;spacingLeft=4;spacingRight=4;overflow=hidden;rotatable=0;points=[[0,0.5],[1,0.5]];portConstraint=eastwest;" parent="ydXOMkTpQAnUlT9arwQ4-95" vertex="1">
          <mxGeometry y="164" width="190" height="26" as="geometry" />
        </mxCell>
        <mxCell id="ydXOMkTpQAnUlT9arwQ4-104" value="+ StateTired(): void" style="text;strokeColor=none;fillColor=none;align=left;verticalAlign=top;spacingLeft=4;spacingRight=4;overflow=hidden;rotatable=0;points=[[0,0.5],[1,0.5]];portConstraint=eastwest;" parent="ydXOMkTpQAnUlT9arwQ4-95" vertex="1">
          <mxGeometry y="190" width="190" height="26" as="geometry" />
        </mxCell>
        <mxCell id="ydXOMkTpQAnUlT9arwQ4-105" value="PlayerStats : CharacterStats" style="swimlane;fontStyle=0;childLayout=stackLayout;horizontal=1;startSize=26;fillColor=none;horizontalStack=0;resizeParent=1;resizeParentMax=0;resizeLast=0;collapsible=1;marginBottom=0;" parent="1" vertex="1">
          <mxGeometry x="370" y="550" width="180" height="52" as="geometry" />
        </mxCell>
        <mxCell id="ydXOMkTpQAnUlT9arwQ4-108" value="+ PlayerStats()" style="text;strokeColor=none;fillColor=none;align=left;verticalAlign=top;spacingLeft=4;spacingRight=4;overflow=hidden;rotatable=0;points=[[0,0.5],[1,0.5]];portConstraint=eastwest;" parent="ydXOMkTpQAnUlT9arwQ4-105" vertex="1">
          <mxGeometry y="26" width="180" height="26" as="geometry" />
        </mxCell>
        <mxCell id="ydXOMkTpQAnUlT9arwQ4-113" value="PlayerControl : MonoBehaviour" style="swimlane;fontStyle=1;align=center;verticalAlign=top;childLayout=stackLayout;horizontal=1;startSize=26;horizontalStack=0;resizeParent=1;resizeParentMax=0;resizeLast=0;collapsible=1;marginBottom=0;" parent="1" vertex="1">
          <mxGeometry x="320" y="668" width="340" height="736" as="geometry" />
        </mxCell>
        <mxCell id="ydXOMkTpQAnUlT9arwQ4-125" value="+ characterController: CharacterController" style="text;strokeColor=none;fillColor=none;align=left;verticalAlign=top;spacingLeft=4;spacingRight=4;overflow=hidden;rotatable=0;points=[[0,0.5],[1,0.5]];portConstraint=eastwest;" parent="ydXOMkTpQAnUlT9arwQ4-113" vertex="1">
          <mxGeometry y="26" width="340" height="26" as="geometry" />
        </mxCell>
        <mxCell id="ydXOMkTpQAnUlT9arwQ4-123" value="+ playerstats: CharacterStats" style="text;strokeColor=none;fillColor=none;align=left;verticalAlign=top;spacingLeft=4;spacingRight=4;overflow=hidden;rotatable=0;points=[[0,0.5],[1,0.5]];portConstraint=eastwest;" parent="ydXOMkTpQAnUlT9arwQ4-113" vertex="1">
          <mxGeometry y="52" width="340" height="26" as="geometry" />
        </mxCell>
        <mxCell id="ydXOMkTpQAnUlT9arwQ4-124" value="+ mouseLook: MouseLook" style="text;strokeColor=none;fillColor=none;align=left;verticalAlign=top;spacingLeft=4;spacingRight=4;overflow=hidden;rotatable=0;points=[[0,0.5],[1,0.5]];portConstraint=eastwest;" parent="ydXOMkTpQAnUlT9arwQ4-113" vertex="1">
          <mxGeometry y="78" width="340" height="26" as="geometry" />
        </mxCell>
        <mxCell id="ydXOMkTpQAnUlT9arwQ4-126" value="+ groundCheck: Transform" style="text;strokeColor=none;fillColor=none;align=left;verticalAlign=top;spacingLeft=4;spacingRight=4;overflow=hidden;rotatable=0;points=[[0,0.5],[1,0.5]];portConstraint=eastwest;" parent="ydXOMkTpQAnUlT9arwQ4-113" vertex="1">
          <mxGeometry y="104" width="340" height="26" as="geometry" />
        </mxCell>
        <mxCell id="ydXOMkTpQAnUlT9arwQ4-127" value="+ groundDistance: float" style="text;strokeColor=none;fillColor=none;align=left;verticalAlign=top;spacingLeft=4;spacingRight=4;overflow=hidden;rotatable=0;points=[[0,0.5],[1,0.5]];portConstraint=eastwest;" parent="ydXOMkTpQAnUlT9arwQ4-113" vertex="1">
          <mxGeometry y="130" width="340" height="26" as="geometry" />
        </mxCell>
        <mxCell id="ydXOMkTpQAnUlT9arwQ4-133" value="+ groundMask: LayerMask" style="text;strokeColor=none;fillColor=none;align=left;verticalAlign=top;spacingLeft=4;spacingRight=4;overflow=hidden;rotatable=0;points=[[0,0.5],[1,0.5]];portConstraint=eastwest;" parent="ydXOMkTpQAnUlT9arwQ4-113" vertex="1">
          <mxGeometry y="156" width="340" height="26" as="geometry" />
        </mxCell>
        <mxCell id="ydXOMkTpQAnUlT9arwQ4-134" value="+ isGrounded : bool" style="text;strokeColor=none;fillColor=none;align=left;verticalAlign=top;spacingLeft=4;spacingRight=4;overflow=hidden;rotatable=0;points=[[0,0.5],[1,0.5]];portConstraint=eastwest;" parent="ydXOMkTpQAnUlT9arwQ4-113" vertex="1">
          <mxGeometry y="182" width="340" height="26" as="geometry" />
        </mxCell>
        <mxCell id="ydXOMkTpQAnUlT9arwQ4-136" value="+ currentStatus: UIStatus&#xa;" style="text;strokeColor=none;fillColor=none;align=left;verticalAlign=top;spacingLeft=4;spacingRight=4;overflow=hidden;rotatable=0;points=[[0,0.5],[1,0.5]];portConstraint=eastwest;" parent="ydXOMkTpQAnUlT9arwQ4-113" vertex="1">
          <mxGeometry y="208" width="340" height="26" as="geometry" />
        </mxCell>
        <mxCell id="ydXOMkTpQAnUlT9arwQ4-137" value="+ inventory: Inventory" style="text;strokeColor=none;fillColor=none;align=left;verticalAlign=top;spacingLeft=4;spacingRight=4;overflow=hidden;rotatable=0;points=[[0,0.5],[1,0.5]];portConstraint=eastwest;" parent="ydXOMkTpQAnUlT9arwQ4-113" vertex="1">
          <mxGeometry y="234" width="340" height="26" as="geometry" />
        </mxCell>
        <mxCell id="ydXOMkTpQAnUlT9arwQ4-114" value="+ inventoryCursor: int" style="text;strokeColor=none;fillColor=none;align=left;verticalAlign=top;spacingLeft=4;spacingRight=4;overflow=hidden;rotatable=0;points=[[0,0.5],[1,0.5]];portConstraint=eastwest;" parent="ydXOMkTpQAnUlT9arwQ4-113" vertex="1">
          <mxGeometry y="260" width="340" height="26" as="geometry" />
        </mxCell>
        <mxCell id="ydXOMkTpQAnUlT9arwQ4-130" value="+ velocity: Vector3" style="text;strokeColor=none;fillColor=none;align=left;verticalAlign=top;spacingLeft=4;spacingRight=4;overflow=hidden;rotatable=0;points=[[0,0.5],[1,0.5]];portConstraint=eastwest;" parent="ydXOMkTpQAnUlT9arwQ4-113" vertex="1">
          <mxGeometry y="286" width="340" height="26" as="geometry" />
        </mxCell>
        <mxCell id="ydXOMkTpQAnUlT9arwQ4-131" value="+ gravity: float" style="text;strokeColor=none;fillColor=none;align=left;verticalAlign=top;spacingLeft=4;spacingRight=4;overflow=hidden;rotatable=0;points=[[0,0.5],[1,0.5]];portConstraint=eastwest;" parent="ydXOMkTpQAnUlT9arwQ4-113" vertex="1">
          <mxGeometry y="312" width="340" height="26" as="geometry" />
        </mxCell>
        <mxCell id="ydXOMkTpQAnUlT9arwQ4-135" value="+ input: Vector3" style="text;strokeColor=none;fillColor=none;align=left;verticalAlign=top;spacingLeft=4;spacingRight=4;overflow=hidden;rotatable=0;points=[[0,0.5],[1,0.5]];portConstraint=eastwest;" parent="ydXOMkTpQAnUlT9arwQ4-113" vertex="1">
          <mxGeometry y="338" width="340" height="26" as="geometry" />
        </mxCell>
        <mxCell id="ydXOMkTpQAnUlT9arwQ4-132" value="+ move: Vector3" style="text;strokeColor=none;fillColor=none;align=left;verticalAlign=top;spacingLeft=4;spacingRight=4;overflow=hidden;rotatable=0;points=[[0,0.5],[1,0.5]];portConstraint=eastwest;" parent="ydXOMkTpQAnUlT9arwQ4-113" vertex="1">
          <mxGeometry y="364" width="340" height="26" as="geometry" />
        </mxCell>
        <mxCell id="ydXOMkTpQAnUlT9arwQ4-138" value="- _instance: PlayerControl" style="text;strokeColor=none;fillColor=none;align=left;verticalAlign=top;spacingLeft=4;spacingRight=4;overflow=hidden;rotatable=0;points=[[0,0.5],[1,0.5]];portConstraint=eastwest;fontStyle=4" parent="ydXOMkTpQAnUlT9arwQ4-113" vertex="1">
          <mxGeometry y="390" width="340" height="26" as="geometry" />
        </mxCell>
        <mxCell id="ydXOMkTpQAnUlT9arwQ4-115" value="" style="line;strokeWidth=1;fillColor=none;align=left;verticalAlign=middle;spacingTop=-1;spacingLeft=3;spacingRight=3;rotatable=0;labelPosition=right;points=[];portConstraint=eastwest;" parent="ydXOMkTpQAnUlT9arwQ4-113" vertex="1">
          <mxGeometry y="416" width="340" height="8" as="geometry" />
        </mxCell>
        <mxCell id="ydXOMkTpQAnUlT9arwQ4-116" value="+ GetInstance(): PlayerControl" style="text;strokeColor=none;fillColor=none;align=left;verticalAlign=top;spacingLeft=4;spacingRight=4;overflow=hidden;rotatable=0;points=[[0,0.5],[1,0.5]];portConstraint=eastwest;fontStyle=4" parent="ydXOMkTpQAnUlT9arwQ4-113" vertex="1">
          <mxGeometry y="424" width="340" height="26" as="geometry" />
        </mxCell>
        <mxCell id="ydXOMkTpQAnUlT9arwQ4-139" value="- Awake(): void" style="text;strokeColor=none;fillColor=none;align=left;verticalAlign=top;spacingLeft=4;spacingRight=4;overflow=hidden;rotatable=0;points=[[0,0.5],[1,0.5]];portConstraint=eastwest;" parent="ydXOMkTpQAnUlT9arwQ4-113" vertex="1">
          <mxGeometry y="450" width="340" height="26" as="geometry" />
        </mxCell>
        <mxCell id="ydXOMkTpQAnUlT9arwQ4-140" value="- Start(): void" style="text;strokeColor=none;fillColor=none;align=left;verticalAlign=top;spacingLeft=4;spacingRight=4;overflow=hidden;rotatable=0;points=[[0,0.5],[1,0.5]];portConstraint=eastwest;" parent="ydXOMkTpQAnUlT9arwQ4-113" vertex="1">
          <mxGeometry y="476" width="340" height="26" as="geometry" />
        </mxCell>
        <mxCell id="ydXOMkTpQAnUlT9arwQ4-142" value="- Update(): void" style="text;strokeColor=none;fillColor=none;align=left;verticalAlign=top;spacingLeft=4;spacingRight=4;overflow=hidden;rotatable=0;points=[[0,0.5],[1,0.5]];portConstraint=eastwest;" parent="ydXOMkTpQAnUlT9arwQ4-113" vertex="1">
          <mxGeometry y="502" width="340" height="26" as="geometry" />
        </mxCell>
        <mxCell id="ydXOMkTpQAnUlT9arwQ4-141" value="- GetInput(): void" style="text;strokeColor=none;fillColor=none;align=left;verticalAlign=top;spacingLeft=4;spacingRight=4;overflow=hidden;rotatable=0;points=[[0,0.5],[1,0.5]];portConstraint=eastwest;" parent="ydXOMkTpQAnUlT9arwQ4-113" vertex="1">
          <mxGeometry y="528" width="340" height="26" as="geometry" />
        </mxCell>
        <mxCell id="ydXOMkTpQAnUlT9arwQ4-143" value="- Movement(): void" style="text;strokeColor=none;fillColor=none;align=left;verticalAlign=top;spacingLeft=4;spacingRight=4;overflow=hidden;rotatable=0;points=[[0,0.5],[1,0.5]];portConstraint=eastwest;" parent="ydXOMkTpQAnUlT9arwQ4-113" vertex="1">
          <mxGeometry y="554" width="340" height="26" as="geometry" />
        </mxCell>
        <mxCell id="ydXOMkTpQAnUlT9arwQ4-144" value="- InventoryMovement(): void" style="text;strokeColor=none;fillColor=none;align=left;verticalAlign=top;spacingLeft=4;spacingRight=4;overflow=hidden;rotatable=0;points=[[0,0.5],[1,0.5]];portConstraint=eastwest;" parent="ydXOMkTpQAnUlT9arwQ4-113" vertex="1">
          <mxGeometry y="580" width="340" height="26" as="geometry" />
        </mxCell>
        <mxCell id="ydXOMkTpQAnUlT9arwQ4-145" value="+ GetInventory(): List&lt;Item&gt;" style="text;strokeColor=none;fillColor=none;align=left;verticalAlign=top;spacingLeft=4;spacingRight=4;overflow=hidden;rotatable=0;points=[[0,0.5],[1,0.5]];portConstraint=eastwest;" parent="ydXOMkTpQAnUlT9arwQ4-113" vertex="1">
          <mxGeometry y="606" width="340" height="26" as="geometry" />
        </mxCell>
        <mxCell id="ydXOMkTpQAnUlT9arwQ4-147" value="+ IsInventoryOpened(): bool" style="text;strokeColor=none;fillColor=none;align=left;verticalAlign=top;spacingLeft=4;spacingRight=4;overflow=hidden;rotatable=0;points=[[0,0.5],[1,0.5]];portConstraint=eastwest;" parent="ydXOMkTpQAnUlT9arwQ4-113" vertex="1">
          <mxGeometry y="632" width="340" height="26" as="geometry" />
        </mxCell>
        <mxCell id="ydXOMkTpQAnUlT9arwQ4-146" value="+ GetInventoryCursor(): int" style="text;strokeColor=none;fillColor=none;align=left;verticalAlign=top;spacingLeft=4;spacingRight=4;overflow=hidden;rotatable=0;points=[[0,0.5],[1,0.5]];portConstraint=eastwest;" parent="ydXOMkTpQAnUlT9arwQ4-113" vertex="1">
          <mxGeometry y="658" width="340" height="26" as="geometry" />
        </mxCell>
        <mxCell id="ydXOMkTpQAnUlT9arwQ4-148" value="+ ThrowItem(): void" style="text;strokeColor=none;fillColor=none;align=left;verticalAlign=top;spacingLeft=4;spacingRight=4;overflow=hidden;rotatable=0;points=[[0,0.5],[1,0.5]];portConstraint=eastwest;" parent="ydXOMkTpQAnUlT9arwQ4-113" vertex="1">
          <mxGeometry y="684" width="340" height="26" as="geometry" />
        </mxCell>
        <mxCell id="ydXOMkTpQAnUlT9arwQ4-149" value="+ ThrowItem(int): void" style="text;strokeColor=none;fillColor=none;align=left;verticalAlign=top;spacingLeft=4;spacingRight=4;overflow=hidden;rotatable=0;points=[[0,0.5],[1,0.5]];portConstraint=eastwest;" parent="ydXOMkTpQAnUlT9arwQ4-113" vertex="1">
          <mxGeometry y="710" width="340" height="26" as="geometry" />
        </mxCell>
        <mxCell id="ydXOMkTpQAnUlT9arwQ4-150" value="Inventory : MonoBehaviour" style="swimlane;fontStyle=1;align=center;verticalAlign=top;childLayout=stackLayout;horizontal=1;startSize=26;horizontalStack=0;resizeParent=1;resizeParentMax=0;resizeLast=0;collapsible=1;marginBottom=0;" parent="1" vertex="1">
          <mxGeometry x="730" y="1460" width="230" height="268" as="geometry" />
        </mxCell>
        <mxCell id="ydXOMkTpQAnUlT9arwQ4-151" value="-instance : Inventory" style="text;strokeColor=none;fillColor=none;align=left;verticalAlign=top;spacingLeft=4;spacingRight=4;overflow=hidden;rotatable=0;points=[[0,0.5],[1,0.5]];portConstraint=eastwest;fontStyle=4" parent="ydXOMkTpQAnUlT9arwQ4-150" vertex="1">
          <mxGeometry y="26" width="230" height="26" as="geometry" />
        </mxCell>
        <mxCell id="ydXOMkTpQAnUlT9arwQ4-154" value="+ items : List&lt;Item&gt;" style="text;strokeColor=none;fillColor=none;align=left;verticalAlign=top;spacingLeft=4;spacingRight=4;overflow=hidden;rotatable=0;points=[[0,0.5],[1,0.5]];portConstraint=eastwest;" parent="ydXOMkTpQAnUlT9arwQ4-150" vertex="1">
          <mxGeometry y="52" width="230" height="26" as="geometry" />
        </mxCell>
        <mxCell id="ydXOMkTpQAnUlT9arwQ4-152" value="" style="line;strokeWidth=1;fillColor=none;align=left;verticalAlign=middle;spacingTop=-1;spacingLeft=3;spacingRight=3;rotatable=0;labelPosition=right;points=[];portConstraint=eastwest;" parent="ydXOMkTpQAnUlT9arwQ4-150" vertex="1">
          <mxGeometry y="78" width="230" height="8" as="geometry" />
        </mxCell>
        <mxCell id="ydXOMkTpQAnUlT9arwQ4-153" value="-Inventory()" style="text;strokeColor=none;fillColor=none;align=left;verticalAlign=top;spacingLeft=4;spacingRight=4;overflow=hidden;rotatable=0;points=[[0,0.5],[1,0.5]];portConstraint=eastwest;" parent="ydXOMkTpQAnUlT9arwQ4-150" vertex="1">
          <mxGeometry y="86" width="230" height="26" as="geometry" />
        </mxCell>
        <mxCell id="ydXOMkTpQAnUlT9arwQ4-158" value="+GetInstance(): Inventory" style="text;strokeColor=none;fillColor=none;align=left;verticalAlign=top;spacingLeft=4;spacingRight=4;overflow=hidden;rotatable=0;points=[[0,0.5],[1,0.5]];portConstraint=eastwest;fontStyle=4" parent="ydXOMkTpQAnUlT9arwQ4-150" vertex="1">
          <mxGeometry y="112" width="230" height="26" as="geometry" />
        </mxCell>
        <mxCell id="ydXOMkTpQAnUlT9arwQ4-159" value="- Awake(): void" style="text;strokeColor=none;fillColor=none;align=left;verticalAlign=top;spacingLeft=4;spacingRight=4;overflow=hidden;rotatable=0;points=[[0,0.5],[1,0.5]];portConstraint=eastwest;" parent="ydXOMkTpQAnUlT9arwQ4-150" vertex="1">
          <mxGeometry y="138" width="230" height="26" as="geometry" />
        </mxCell>
        <mxCell id="ydXOMkTpQAnUlT9arwQ4-157" value="+ Add(Item): void" style="text;strokeColor=none;fillColor=none;align=left;verticalAlign=top;spacingLeft=4;spacingRight=4;overflow=hidden;rotatable=0;points=[[0,0.5],[1,0.5]];portConstraint=eastwest;" parent="ydXOMkTpQAnUlT9arwQ4-150" vertex="1">
          <mxGeometry y="164" width="230" height="26" as="geometry" />
        </mxCell>
        <mxCell id="ydXOMkTpQAnUlT9arwQ4-160" value="+ Remove(int): void" style="text;strokeColor=none;fillColor=none;align=left;verticalAlign=top;spacingLeft=4;spacingRight=4;overflow=hidden;rotatable=0;points=[[0,0.5],[1,0.5]];portConstraint=eastwest;" parent="ydXOMkTpQAnUlT9arwQ4-150" vertex="1">
          <mxGeometry y="190" width="230" height="26" as="geometry" />
        </mxCell>
        <mxCell id="ydXOMkTpQAnUlT9arwQ4-161" value="+ AddItem(itemType): void" style="text;strokeColor=none;fillColor=none;align=left;verticalAlign=top;spacingLeft=4;spacingRight=4;overflow=hidden;rotatable=0;points=[[0,0.5],[1,0.5]];portConstraint=eastwest;" parent="ydXOMkTpQAnUlT9arwQ4-150" vertex="1">
          <mxGeometry y="216" width="230" height="26" as="geometry" />
        </mxCell>
        <mxCell id="ydXOMkTpQAnUlT9arwQ4-162" value="- Start(): void" style="text;strokeColor=none;fillColor=none;align=left;verticalAlign=top;spacingLeft=4;spacingRight=4;overflow=hidden;rotatable=0;points=[[0,0.5],[1,0.5]];portConstraint=eastwest;" parent="ydXOMkTpQAnUlT9arwQ4-150" vertex="1">
          <mxGeometry y="242" width="230" height="26" as="geometry" />
        </mxCell>
        <mxCell id="OuygbYaT5pNPhC3rYNPg-16" style="edgeStyle=orthogonalEdgeStyle;rounded=0;orthogonalLoop=1;jettySize=auto;html=1;startArrow=block;startFill=0;endArrow=diamondThin;endFill=0;entryX=0.638;entryY=1.131;entryDx=0;entryDy=0;entryPerimeter=0;exitX=0.474;exitY=0;exitDx=0;exitDy=0;exitPerimeter=0;" edge="1" parent="1" source="ydXOMkTpQAnUlT9arwQ4-163" target="ydXOMkTpQAnUlT9arwQ4-187">
          <mxGeometry relative="1" as="geometry">
            <mxPoint x="470" y="1600" as="targetPoint" />
            <mxPoint x="470" y="1740" as="sourcePoint" />
            <Array as="points">
              <mxPoint x="469" y="1661" />
              <mxPoint x="470" y="1661" />
              <mxPoint x="470" y="1575" />
            </Array>
          </mxGeometry>
        </mxCell>
        <mxCell id="ydXOMkTpQAnUlT9arwQ4-163" value="ItemType : SriptableObject" style="swimlane;fontStyle=1;childLayout=stackLayout;horizontal=1;startSize=26;fillColor=none;horizontalStack=0;resizeParent=1;resizeParentMax=0;resizeLast=0;collapsible=1;marginBottom=0;" parent="1" vertex="1">
          <mxGeometry x="370" y="1790" width="210" height="130" as="geometry" />
        </mxCell>
        <mxCell id="ydXOMkTpQAnUlT9arwQ4-164" value="+ Name: string" style="text;strokeColor=none;fillColor=none;align=left;verticalAlign=top;spacingLeft=4;spacingRight=4;overflow=hidden;rotatable=0;points=[[0,0.5],[1,0.5]];portConstraint=eastwest;" parent="ydXOMkTpQAnUlT9arwQ4-163" vertex="1">
          <mxGeometry y="26" width="210" height="26" as="geometry" />
        </mxCell>
        <mxCell id="ydXOMkTpQAnUlT9arwQ4-165" value="+ Descriprion: string" style="text;strokeColor=none;fillColor=none;align=left;verticalAlign=top;spacingLeft=4;spacingRight=4;overflow=hidden;rotatable=0;points=[[0,0.5],[1,0.5]];portConstraint=eastwest;" parent="ydXOMkTpQAnUlT9arwQ4-163" vertex="1">
          <mxGeometry y="52" width="210" height="26" as="geometry" />
        </mxCell>
        <mxCell id="ydXOMkTpQAnUlT9arwQ4-166" value="+ MaxDurability: int" style="text;strokeColor=none;fillColor=none;align=left;verticalAlign=top;spacingLeft=4;spacingRight=4;overflow=hidden;rotatable=0;points=[[0,0.5],[1,0.5]];portConstraint=eastwest;" parent="ydXOMkTpQAnUlT9arwQ4-163" vertex="1">
          <mxGeometry y="78" width="210" height="26" as="geometry" />
        </mxCell>
        <mxCell id="ydXOMkTpQAnUlT9arwQ4-167" value="+ MaxStackSize: int" style="text;strokeColor=none;fillColor=none;align=left;verticalAlign=top;spacingLeft=4;spacingRight=4;overflow=hidden;rotatable=0;points=[[0,0.5],[1,0.5]];portConstraint=eastwest;" parent="ydXOMkTpQAnUlT9arwQ4-163" vertex="1">
          <mxGeometry y="104" width="210" height="26" as="geometry" />
        </mxCell>
        <mxCell id="ydXOMkTpQAnUlT9arwQ4-173" value="Item : Scriptableobject" style="swimlane;fontStyle=1;align=center;verticalAlign=top;childLayout=stackLayout;horizontal=1;startSize=26;horizontalStack=0;resizeParent=1;resizeParentMax=0;resizeLast=0;collapsible=1;marginBottom=0;" parent="1" vertex="1">
          <mxGeometry x="730" y="1794" width="220" height="242" as="geometry" />
        </mxCell>
        <mxCell id="ydXOMkTpQAnUlT9arwQ4-174" value="+ ItemType: ItemType" style="text;strokeColor=none;fillColor=none;align=left;verticalAlign=top;spacingLeft=4;spacingRight=4;overflow=hidden;rotatable=0;points=[[0,0.5],[1,0.5]];portConstraint=eastwest;" parent="ydXOMkTpQAnUlT9arwQ4-173" vertex="1">
          <mxGeometry y="26" width="220" height="26" as="geometry" />
        </mxCell>
        <mxCell id="ydXOMkTpQAnUlT9arwQ4-177" value="+ ActualStackSize: int" style="text;strokeColor=none;fillColor=none;align=left;verticalAlign=top;spacingLeft=4;spacingRight=4;overflow=hidden;rotatable=0;points=[[0,0.5],[1,0.5]];portConstraint=eastwest;" parent="ydXOMkTpQAnUlT9arwQ4-173" vertex="1">
          <mxGeometry y="52" width="220" height="26" as="geometry" />
        </mxCell>
        <mxCell id="ydXOMkTpQAnUlT9arwQ4-178" value="+ CurrentDurability: int" style="text;strokeColor=none;fillColor=none;align=left;verticalAlign=top;spacingLeft=4;spacingRight=4;overflow=hidden;rotatable=0;points=[[0,0.5],[1,0.5]];portConstraint=eastwest;" parent="ydXOMkTpQAnUlT9arwQ4-173" vertex="1">
          <mxGeometry y="78" width="220" height="26" as="geometry" />
        </mxCell>
        <mxCell id="ydXOMkTpQAnUlT9arwQ4-175" value="" style="line;strokeWidth=1;fillColor=none;align=left;verticalAlign=middle;spacingTop=-1;spacingLeft=3;spacingRight=3;rotatable=0;labelPosition=right;points=[];portConstraint=eastwest;" parent="ydXOMkTpQAnUlT9arwQ4-173" vertex="1">
          <mxGeometry y="104" width="220" height="8" as="geometry" />
        </mxCell>
        <mxCell id="ydXOMkTpQAnUlT9arwQ4-179" value="+ Item(ItemType)" style="text;strokeColor=none;fillColor=none;align=left;verticalAlign=top;spacingLeft=4;spacingRight=4;overflow=hidden;rotatable=0;points=[[0,0.5],[1,0.5]];portConstraint=eastwest;" parent="ydXOMkTpQAnUlT9arwQ4-173" vertex="1">
          <mxGeometry y="112" width="220" height="26" as="geometry" />
        </mxCell>
        <mxCell id="ydXOMkTpQAnUlT9arwQ4-181" value="+ GetName(): string" style="text;strokeColor=none;fillColor=none;align=left;verticalAlign=top;spacingLeft=4;spacingRight=4;overflow=hidden;rotatable=0;points=[[0,0.5],[1,0.5]];portConstraint=eastwest;" parent="ydXOMkTpQAnUlT9arwQ4-173" vertex="1">
          <mxGeometry y="138" width="220" height="26" as="geometry" />
        </mxCell>
        <mxCell id="ydXOMkTpQAnUlT9arwQ4-180" value="+ GetActualStackSize(): int" style="text;strokeColor=none;fillColor=none;align=left;verticalAlign=top;spacingLeft=4;spacingRight=4;overflow=hidden;rotatable=0;points=[[0,0.5],[1,0.5]];portConstraint=eastwest;" parent="ydXOMkTpQAnUlT9arwQ4-173" vertex="1">
          <mxGeometry y="164" width="220" height="26" as="geometry" />
        </mxCell>
        <mxCell id="ydXOMkTpQAnUlT9arwQ4-182" value="+ SetActualStackSize(int): void" style="text;strokeColor=none;fillColor=none;align=left;verticalAlign=top;spacingLeft=4;spacingRight=4;overflow=hidden;rotatable=0;points=[[0,0.5],[1,0.5]];portConstraint=eastwest;" parent="ydXOMkTpQAnUlT9arwQ4-173" vertex="1">
          <mxGeometry y="190" width="220" height="26" as="geometry" />
        </mxCell>
        <mxCell id="ydXOMkTpQAnUlT9arwQ4-176" value="+ GetMaxStackSize(): int" style="text;strokeColor=none;fillColor=none;align=left;verticalAlign=top;spacingLeft=4;spacingRight=4;overflow=hidden;rotatable=0;points=[[0,0.5],[1,0.5]];portConstraint=eastwest;" parent="ydXOMkTpQAnUlT9arwQ4-173" vertex="1">
          <mxGeometry y="216" width="220" height="26" as="geometry" />
        </mxCell>
        <mxCell id="ydXOMkTpQAnUlT9arwQ4-183" value="ItemMenager" style="swimlane;fontStyle=1;align=center;verticalAlign=top;childLayout=stackLayout;horizontal=1;startSize=26;horizontalStack=0;resizeParent=1;resizeParentMax=0;resizeLast=0;collapsible=1;marginBottom=0;" parent="1" vertex="1">
          <mxGeometry x="340" y="1460" width="203" height="112" as="geometry" />
        </mxCell>
        <mxCell id="ydXOMkTpQAnUlT9arwQ4-184" value="-itemTypes: List&lt;ItemTypes&gt;" style="text;strokeColor=none;fillColor=none;align=left;verticalAlign=top;spacingLeft=4;spacingRight=4;overflow=hidden;rotatable=0;points=[[0,0.5],[1,0.5]];portConstraint=eastwest;fontStyle=4" parent="ydXOMkTpQAnUlT9arwQ4-183" vertex="1">
          <mxGeometry y="26" width="203" height="26" as="geometry" />
        </mxCell>
        <mxCell id="ydXOMkTpQAnUlT9arwQ4-185" value="" style="line;strokeWidth=1;fillColor=none;align=left;verticalAlign=middle;spacingTop=-1;spacingLeft=3;spacingRight=3;rotatable=0;labelPosition=right;points=[];portConstraint=eastwest;" parent="ydXOMkTpQAnUlT9arwQ4-183" vertex="1">
          <mxGeometry y="52" width="203" height="8" as="geometry" />
        </mxCell>
        <mxCell id="ydXOMkTpQAnUlT9arwQ4-186" value="- ItemMenager()" style="text;strokeColor=none;fillColor=none;align=left;verticalAlign=top;spacingLeft=4;spacingRight=4;overflow=hidden;rotatable=0;points=[[0,0.5],[1,0.5]];portConstraint=eastwest;fontStyle=4" parent="ydXOMkTpQAnUlT9arwQ4-183" vertex="1">
          <mxGeometry y="60" width="203" height="26" as="geometry" />
        </mxCell>
        <mxCell id="ydXOMkTpQAnUlT9arwQ4-187" value="+ GetItemType(string): ItemType" style="text;strokeColor=none;fillColor=none;align=left;verticalAlign=top;spacingLeft=4;spacingRight=4;overflow=hidden;rotatable=0;points=[[0,0.5],[1,0.5]];portConstraint=eastwest;fontStyle=4" parent="ydXOMkTpQAnUlT9arwQ4-183" vertex="1">
          <mxGeometry y="86" width="203" height="26" as="geometry" />
        </mxCell>
        <mxCell id="ydXOMkTpQAnUlT9arwQ4-188" value="ChunkData" style="swimlane;fontStyle=1;align=center;verticalAlign=top;childLayout=stackLayout;horizontal=1;startSize=26;horizontalStack=0;resizeParent=1;resizeParentMax=0;resizeLast=0;collapsible=1;marginBottom=0;" parent="1" vertex="1">
          <mxGeometry x="1780" y="1930" width="230" height="138" as="geometry" />
        </mxCell>
        <mxCell id="ydXOMkTpQAnUlT9arwQ4-189" value="+ GlobalX: int" style="text;strokeColor=none;fillColor=none;align=left;verticalAlign=top;spacingLeft=4;spacingRight=4;overflow=hidden;rotatable=0;points=[[0,0.5],[1,0.5]];portConstraint=eastwest;" parent="ydXOMkTpQAnUlT9arwQ4-188" vertex="1">
          <mxGeometry y="26" width="230" height="26" as="geometry" />
        </mxCell>
        <mxCell id="ydXOMkTpQAnUlT9arwQ4-193" value="+ GlobalY: int" style="text;strokeColor=none;fillColor=none;align=left;verticalAlign=top;spacingLeft=4;spacingRight=4;overflow=hidden;rotatable=0;points=[[0,0.5],[1,0.5]];portConstraint=eastwest;" parent="ydXOMkTpQAnUlT9arwQ4-188" vertex="1">
          <mxGeometry y="52" width="230" height="26" as="geometry" />
        </mxCell>
        <mxCell id="ydXOMkTpQAnUlT9arwQ4-192" value="+ Type: string" style="text;strokeColor=none;fillColor=none;align=left;verticalAlign=top;spacingLeft=4;spacingRight=4;overflow=hidden;rotatable=0;points=[[0,0.5],[1,0.5]];portConstraint=eastwest;" parent="ydXOMkTpQAnUlT9arwQ4-188" vertex="1">
          <mxGeometry y="78" width="230" height="26" as="geometry" />
        </mxCell>
        <mxCell id="ydXOMkTpQAnUlT9arwQ4-190" value="" style="line;strokeWidth=1;fillColor=none;align=left;verticalAlign=middle;spacingTop=-1;spacingLeft=3;spacingRight=3;rotatable=0;labelPosition=right;points=[];portConstraint=eastwest;" parent="ydXOMkTpQAnUlT9arwQ4-188" vertex="1">
          <mxGeometry y="104" width="230" height="8" as="geometry" />
        </mxCell>
        <mxCell id="ydXOMkTpQAnUlT9arwQ4-191" value="+ ChunkData(int,int,string)" style="text;strokeColor=none;fillColor=none;align=left;verticalAlign=top;spacingLeft=4;spacingRight=4;overflow=hidden;rotatable=0;points=[[0,0.5],[1,0.5]];portConstraint=eastwest;" parent="ydXOMkTpQAnUlT9arwQ4-188" vertex="1">
          <mxGeometry y="112" width="230" height="26" as="geometry" />
        </mxCell>
        <mxCell id="ydXOMkTpQAnUlT9arwQ4-194" value="MapData" style="swimlane;fontStyle=1;align=center;verticalAlign=top;childLayout=stackLayout;horizontal=1;startSize=26;horizontalStack=0;resizeParent=1;resizeParentMax=0;resizeLast=0;collapsible=1;marginBottom=0;" parent="1" vertex="1">
          <mxGeometry x="1500" y="1930" width="230" height="216" as="geometry" />
        </mxCell>
        <mxCell id="ydXOMkTpQAnUlT9arwQ4-195" value="+ RenderDistance: int" style="text;strokeColor=none;fillColor=none;align=left;verticalAlign=top;spacingLeft=4;spacingRight=4;overflow=hidden;rotatable=0;points=[[0,0.5],[1,0.5]];portConstraint=eastwest;" parent="ydXOMkTpQAnUlT9arwQ4-194" vertex="1">
          <mxGeometry y="26" width="230" height="26" as="geometry" />
        </mxCell>
        <mxCell id="ydXOMkTpQAnUlT9arwQ4-200" value="+ ChunkSizeX: float" style="text;strokeColor=none;fillColor=none;align=left;verticalAlign=top;spacingLeft=4;spacingRight=4;overflow=hidden;rotatable=0;points=[[0,0.5],[1,0.5]];portConstraint=eastwest;" parent="ydXOMkTpQAnUlT9arwQ4-194" vertex="1">
          <mxGeometry y="52" width="230" height="26" as="geometry" />
        </mxCell>
        <mxCell id="ydXOMkTpQAnUlT9arwQ4-196" value="+ ChunkSizeY: float" style="text;strokeColor=none;fillColor=none;align=left;verticalAlign=top;spacingLeft=4;spacingRight=4;overflow=hidden;rotatable=0;points=[[0,0.5],[1,0.5]];portConstraint=eastwest;" parent="ydXOMkTpQAnUlT9arwQ4-194" vertex="1">
          <mxGeometry y="78" width="230" height="26" as="geometry" />
        </mxCell>
        <mxCell id="ydXOMkTpQAnUlT9arwQ4-197" value="+ ChunkSizeZ: float" style="text;strokeColor=none;fillColor=none;align=left;verticalAlign=top;spacingLeft=4;spacingRight=4;overflow=hidden;rotatable=0;points=[[0,0.5],[1,0.5]];portConstraint=eastwest;" parent="ydXOMkTpQAnUlT9arwQ4-194" vertex="1">
          <mxGeometry y="104" width="230" height="26" as="geometry" />
        </mxCell>
        <mxCell id="ydXOMkTpQAnUlT9arwQ4-201" value="+ Chunks : ChunkData[][]" style="text;strokeColor=none;fillColor=none;align=left;verticalAlign=top;spacingLeft=4;spacingRight=4;overflow=hidden;rotatable=0;points=[[0,0.5],[1,0.5]];portConstraint=eastwest;" parent="ydXOMkTpQAnUlT9arwQ4-194" vertex="1">
          <mxGeometry y="130" width="230" height="26" as="geometry" />
        </mxCell>
        <mxCell id="ydXOMkTpQAnUlT9arwQ4-198" value="" style="line;strokeWidth=1;fillColor=none;align=left;verticalAlign=middle;spacingTop=-1;spacingLeft=3;spacingRight=3;rotatable=0;labelPosition=right;points=[];portConstraint=eastwest;" parent="ydXOMkTpQAnUlT9arwQ4-194" vertex="1">
          <mxGeometry y="156" width="230" height="8" as="geometry" />
        </mxCell>
        <mxCell id="ydXOMkTpQAnUlT9arwQ4-199" value="+ MapData(int,Vector3)" style="text;strokeColor=none;fillColor=none;align=left;verticalAlign=top;spacingLeft=4;spacingRight=4;overflow=hidden;rotatable=0;points=[[0,0.5],[1,0.5]];portConstraint=eastwest;" parent="ydXOMkTpQAnUlT9arwQ4-194" vertex="1">
          <mxGeometry y="164" width="230" height="26" as="geometry" />
        </mxCell>
        <mxCell id="ydXOMkTpQAnUlT9arwQ4-202" value="+ CopyChunks(GameObject[][]):void" style="text;strokeColor=none;fillColor=none;align=left;verticalAlign=top;spacingLeft=4;spacingRight=4;overflow=hidden;rotatable=0;points=[[0,0.5],[1,0.5]];portConstraint=eastwest;" parent="ydXOMkTpQAnUlT9arwQ4-194" vertex="1">
          <mxGeometry y="190" width="230" height="26" as="geometry" />
        </mxCell>
        <mxCell id="ydXOMkTpQAnUlT9arwQ4-203" value="WorldBuilder" style="swimlane;fontStyle=3;align=center;verticalAlign=top;childLayout=stackLayout;horizontal=1;startSize=26;horizontalStack=0;resizeParent=1;resizeParentMax=0;resizeLast=0;collapsible=1;marginBottom=0;" parent="1" vertex="1">
          <mxGeometry x="1130" y="1930" width="300" height="294" as="geometry" />
        </mxCell>
        <mxCell id="ydXOMkTpQAnUlT9arwQ4-204" value="+ RenderDistance: int" style="text;strokeColor=none;fillColor=none;align=left;verticalAlign=top;spacingLeft=4;spacingRight=4;overflow=hidden;rotatable=0;points=[[0,0.5],[1,0.5]];portConstraint=eastwest;" parent="ydXOMkTpQAnUlT9arwQ4-203" vertex="1">
          <mxGeometry y="26" width="300" height="26" as="geometry" />
        </mxCell>
        <mxCell id="ydXOMkTpQAnUlT9arwQ4-205" value="+ ChunkSize: Vector3" style="text;strokeColor=none;fillColor=none;align=left;verticalAlign=top;spacingLeft=4;spacingRight=4;overflow=hidden;rotatable=0;points=[[0,0.5],[1,0.5]];portConstraint=eastwest;" parent="ydXOMkTpQAnUlT9arwQ4-203" vertex="1">
          <mxGeometry y="52" width="300" height="26" as="geometry" />
        </mxCell>
        <mxCell id="ydXOMkTpQAnUlT9arwQ4-206" value="+ Transform : Transform" style="text;strokeColor=none;fillColor=none;align=left;verticalAlign=top;spacingLeft=4;spacingRight=4;overflow=hidden;rotatable=0;points=[[0,0.5],[1,0.5]];portConstraint=eastwest;" parent="ydXOMkTpQAnUlT9arwQ4-203" vertex="1">
          <mxGeometry y="78" width="300" height="26" as="geometry" />
        </mxCell>
        <mxCell id="ydXOMkTpQAnUlT9arwQ4-207" value="# Chunks : GameObjects[][]" style="text;strokeColor=none;fillColor=none;align=left;verticalAlign=top;spacingLeft=4;spacingRight=4;overflow=hidden;rotatable=0;points=[[0,0.5],[1,0.5]];portConstraint=eastwest;" parent="ydXOMkTpQAnUlT9arwQ4-203" vertex="1">
          <mxGeometry y="104" width="300" height="26" as="geometry" />
        </mxCell>
        <mxCell id="ydXOMkTpQAnUlT9arwQ4-209" value="" style="line;strokeWidth=1;fillColor=none;align=left;verticalAlign=middle;spacingTop=-1;spacingLeft=3;spacingRight=3;rotatable=0;labelPosition=right;points=[];portConstraint=eastwest;" parent="ydXOMkTpQAnUlT9arwQ4-203" vertex="1">
          <mxGeometry y="130" width="300" height="8" as="geometry" />
        </mxCell>
        <mxCell id="ydXOMkTpQAnUlT9arwQ4-210" value="# WorldBuilder(int, Vector3,Transform)" style="text;strokeColor=none;fillColor=none;align=left;verticalAlign=top;spacingLeft=4;spacingRight=4;overflow=hidden;rotatable=0;points=[[0,0.5],[1,0.5]];portConstraint=eastwest;" parent="ydXOMkTpQAnUlT9arwQ4-203" vertex="1">
          <mxGeometry y="138" width="300" height="26" as="geometry" />
        </mxCell>
        <mxCell id="ydXOMkTpQAnUlT9arwQ4-211" value="+ InstanceChunk(GameObjct,int,int) : GameObject" style="text;strokeColor=none;fillColor=none;align=left;verticalAlign=top;spacingLeft=4;spacingRight=4;overflow=hidden;rotatable=0;points=[[0,0.5],[1,0.5]];portConstraint=eastwest;" parent="ydXOMkTpQAnUlT9arwQ4-203" vertex="1">
          <mxGeometry y="164" width="300" height="26" as="geometry" />
        </mxCell>
        <mxCell id="ydXOMkTpQAnUlT9arwQ4-212" value="+ SetMapData(MapData) : void" style="text;strokeColor=none;fillColor=none;align=left;verticalAlign=top;spacingLeft=4;spacingRight=4;overflow=hidden;rotatable=0;points=[[0,0.5],[1,0.5]];portConstraint=eastwest;fontStyle=2" parent="ydXOMkTpQAnUlT9arwQ4-203" vertex="1">
          <mxGeometry y="190" width="300" height="26" as="geometry" />
        </mxCell>
        <mxCell id="ydXOMkTpQAnUlT9arwQ4-213" value="+ GetChunk(int,int) : GameObject" style="text;strokeColor=none;fillColor=none;align=left;verticalAlign=top;spacingLeft=4;spacingRight=4;overflow=hidden;rotatable=0;points=[[0,0.5],[1,0.5]];portConstraint=eastwest;fontStyle=2" parent="ydXOMkTpQAnUlT9arwQ4-203" vertex="1">
          <mxGeometry y="216" width="300" height="26" as="geometry" />
        </mxCell>
        <mxCell id="ydXOMkTpQAnUlT9arwQ4-215" value="+ AddChunk(int,int,GameObject) : void" style="text;strokeColor=none;fillColor=none;align=left;verticalAlign=top;spacingLeft=4;spacingRight=4;overflow=hidden;rotatable=0;points=[[0,0.5],[1,0.5]];portConstraint=eastwest;fontStyle=2" parent="ydXOMkTpQAnUlT9arwQ4-203" vertex="1">
          <mxGeometry y="242" width="300" height="26" as="geometry" />
        </mxCell>
        <mxCell id="ydXOMkTpQAnUlT9arwQ4-214" value="+ GetMap() : GameObject[][]" style="text;strokeColor=none;fillColor=none;align=left;verticalAlign=top;spacingLeft=4;spacingRight=4;overflow=hidden;rotatable=0;points=[[0,0.5],[1,0.5]];portConstraint=eastwest;fontStyle=2" parent="ydXOMkTpQAnUlT9arwQ4-203" vertex="1">
          <mxGeometry y="268" width="300" height="26" as="geometry" />
        </mxCell>
        <mxCell id="ydXOMkTpQAnUlT9arwQ4-216" value="WorldController:MonoBehaviour" style="swimlane;fontStyle=1;align=center;verticalAlign=top;childLayout=stackLayout;horizontal=1;startSize=26;horizontalStack=0;resizeParent=1;resizeParentMax=0;resizeLast=0;collapsible=1;marginBottom=0;" parent="1" vertex="1">
          <mxGeometry x="1130" y="1500" width="300" height="138" as="geometry" />
        </mxCell>
        <mxCell id="ydXOMkTpQAnUlT9arwQ4-218" value="+ ChunkSize: Vector3" style="text;strokeColor=none;fillColor=none;align=left;verticalAlign=top;spacingLeft=4;spacingRight=4;overflow=hidden;rotatable=0;points=[[0,0.5],[1,0.5]];portConstraint=eastwest;" parent="ydXOMkTpQAnUlT9arwQ4-216" vertex="1">
          <mxGeometry y="26" width="300" height="26" as="geometry" />
        </mxCell>
        <mxCell id="ydXOMkTpQAnUlT9arwQ4-217" value="+ RenderDistance: int" style="text;strokeColor=none;fillColor=none;align=left;verticalAlign=top;spacingLeft=4;spacingRight=4;overflow=hidden;rotatable=0;points=[[0,0.5],[1,0.5]];portConstraint=eastwest;" parent="ydXOMkTpQAnUlT9arwQ4-216" vertex="1">
          <mxGeometry y="52" width="300" height="26" as="geometry" />
        </mxCell>
        <mxCell id="ydXOMkTpQAnUlT9arwQ4-219" value="+ LoadWorld: bool" style="text;strokeColor=none;fillColor=none;align=left;verticalAlign=top;spacingLeft=4;spacingRight=4;overflow=hidden;rotatable=0;points=[[0,0.5],[1,0.5]];portConstraint=eastwest;" parent="ydXOMkTpQAnUlT9arwQ4-216" vertex="1">
          <mxGeometry y="78" width="300" height="26" as="geometry" />
        </mxCell>
        <mxCell id="ydXOMkTpQAnUlT9arwQ4-221" value="" style="line;strokeWidth=1;fillColor=none;align=left;verticalAlign=middle;spacingTop=-1;spacingLeft=3;spacingRight=3;rotatable=0;labelPosition=right;points=[];portConstraint=eastwest;" parent="ydXOMkTpQAnUlT9arwQ4-216" vertex="1">
          <mxGeometry y="104" width="300" height="8" as="geometry" />
        </mxCell>
        <mxCell id="ydXOMkTpQAnUlT9arwQ4-227" value="- Start() :  void" style="text;strokeColor=none;fillColor=none;align=left;verticalAlign=top;spacingLeft=4;spacingRight=4;overflow=hidden;rotatable=0;points=[[0,0.5],[1,0.5]];portConstraint=eastwest;fontStyle=0" parent="ydXOMkTpQAnUlT9arwQ4-216" vertex="1">
          <mxGeometry y="112" width="300" height="26" as="geometry" />
        </mxCell>
        <mxCell id="ydXOMkTpQAnUlT9arwQ4-228" value="WorldDirector" style="swimlane;fontStyle=1;align=center;verticalAlign=top;childLayout=stackLayout;horizontal=1;startSize=26;horizontalStack=0;resizeParent=1;resizeParentMax=0;resizeLast=0;collapsible=1;marginBottom=0;" parent="1" vertex="1">
          <mxGeometry x="1130" y="1702" width="300" height="164" as="geometry" />
        </mxCell>
        <mxCell id="ydXOMkTpQAnUlT9arwQ4-229" value="+ WorldBuilder: WorldBuilder" style="text;strokeColor=none;fillColor=none;align=left;verticalAlign=top;spacingLeft=4;spacingRight=4;overflow=hidden;rotatable=0;points=[[0,0.5],[1,0.5]];portConstraint=eastwest;" parent="ydXOMkTpQAnUlT9arwQ4-228" vertex="1">
          <mxGeometry y="26" width="300" height="26" as="geometry" />
        </mxCell>
        <mxCell id="ydXOMkTpQAnUlT9arwQ4-232" value="" style="line;strokeWidth=1;fillColor=none;align=left;verticalAlign=middle;spacingTop=-1;spacingLeft=3;spacingRight=3;rotatable=0;labelPosition=right;points=[];portConstraint=eastwest;" parent="ydXOMkTpQAnUlT9arwQ4-228" vertex="1">
          <mxGeometry y="52" width="300" height="8" as="geometry" />
        </mxCell>
        <mxCell id="ydXOMkTpQAnUlT9arwQ4-233" value="+ WorldDirector(WorldBuilder)" style="text;strokeColor=none;fillColor=none;align=left;verticalAlign=top;spacingLeft=4;spacingRight=4;overflow=hidden;rotatable=0;points=[[0,0.5],[1,0.5]];portConstraint=eastwest;fontStyle=0" parent="ydXOMkTpQAnUlT9arwQ4-228" vertex="1">
          <mxGeometry y="60" width="300" height="26" as="geometry" />
        </mxCell>
        <mxCell id="ydXOMkTpQAnUlT9arwQ4-234" value="+ CreateMap(): void" style="text;strokeColor=none;fillColor=none;align=left;verticalAlign=top;spacingLeft=4;spacingRight=4;overflow=hidden;rotatable=0;points=[[0,0.5],[1,0.5]];portConstraint=eastwest;fontStyle=0" parent="ydXOMkTpQAnUlT9arwQ4-228" vertex="1">
          <mxGeometry y="86" width="300" height="26" as="geometry" />
        </mxCell>
        <mxCell id="ydXOMkTpQAnUlT9arwQ4-235" value="+ SaveWorld(): void" style="text;strokeColor=none;fillColor=none;align=left;verticalAlign=top;spacingLeft=4;spacingRight=4;overflow=hidden;rotatable=0;points=[[0,0.5],[1,0.5]];portConstraint=eastwest;fontStyle=0" parent="ydXOMkTpQAnUlT9arwQ4-228" vertex="1">
          <mxGeometry y="112" width="300" height="26" as="geometry" />
        </mxCell>
        <mxCell id="ydXOMkTpQAnUlT9arwQ4-236" value="+ LoadWorld(): void" style="text;strokeColor=none;fillColor=none;align=left;verticalAlign=top;spacingLeft=4;spacingRight=4;overflow=hidden;rotatable=0;points=[[0,0.5],[1,0.5]];portConstraint=eastwest;fontStyle=0" parent="ydXOMkTpQAnUlT9arwQ4-228" vertex="1">
          <mxGeometry y="138" width="300" height="26" as="geometry" />
        </mxCell>
        <mxCell id="OuygbYaT5pNPhC3rYNPg-21" style="edgeStyle=orthogonalEdgeStyle;rounded=0;orthogonalLoop=1;jettySize=auto;html=1;startArrow=block;startFill=0;endArrow=none;endFill=0;entryX=0.5;entryY=0;entryDx=0;entryDy=0;" edge="1" parent="1" source="ydXOMkTpQAnUlT9arwQ4-249" target="ydXOMkTpQAnUlT9arwQ4-255">
          <mxGeometry relative="1" as="geometry">
            <mxPoint x="1083.75" y="2490.0000000000005" as="targetPoint" />
          </mxGeometry>
        </mxCell>
        <mxCell id="ydXOMkTpQAnUlT9arwQ4-249" value="WorldGenerator:WorldBuilder" style="swimlane;fontStyle=1;childLayout=stackLayout;horizontal=1;startSize=26;fillColor=none;horizontalStack=0;resizeParent=1;resizeParentMax=0;resizeLast=0;collapsible=1;marginBottom=0;" parent="1" vertex="1">
          <mxGeometry x="950" y="2290" width="267.5" height="156" as="geometry" />
        </mxCell>
        <mxCell id="ydXOMkTpQAnUlT9arwQ4-250" value="+ WorldGenerator(int, Vector3, Transform)" style="text;strokeColor=none;fillColor=none;align=left;verticalAlign=top;spacingLeft=4;spacingRight=4;overflow=hidden;rotatable=0;points=[[0,0.5],[1,0.5]];portConstraint=eastwest;" parent="ydXOMkTpQAnUlT9arwQ4-249" vertex="1">
          <mxGeometry y="26" width="267.5" height="26" as="geometry" />
        </mxCell>
        <mxCell id="ydXOMkTpQAnUlT9arwQ4-254" value="+ GetChunk(int,int): GameObject" style="text;strokeColor=none;fillColor=none;align=left;verticalAlign=top;spacingLeft=4;spacingRight=4;overflow=hidden;rotatable=0;points=[[0,0.5],[1,0.5]];portConstraint=eastwest;" parent="ydXOMkTpQAnUlT9arwQ4-249" vertex="1">
          <mxGeometry y="52" width="267.5" height="26" as="geometry" />
        </mxCell>
        <mxCell id="ydXOMkTpQAnUlT9arwQ4-251" value="+ AddChunk(int,int,CameObject): void" style="text;strokeColor=none;fillColor=none;align=left;verticalAlign=top;spacingLeft=4;spacingRight=4;overflow=hidden;rotatable=0;points=[[0,0.5],[1,0.5]];portConstraint=eastwest;" parent="ydXOMkTpQAnUlT9arwQ4-249" vertex="1">
          <mxGeometry y="78" width="267.5" height="26" as="geometry" />
        </mxCell>
        <mxCell id="ydXOMkTpQAnUlT9arwQ4-252" value="+ GetMap(): GameObject[][]" style="text;strokeColor=none;fillColor=none;align=left;verticalAlign=top;spacingLeft=4;spacingRight=4;overflow=hidden;rotatable=0;points=[[0,0.5],[1,0.5]];portConstraint=eastwest;" parent="ydXOMkTpQAnUlT9arwQ4-249" vertex="1">
          <mxGeometry y="104" width="267.5" height="26" as="geometry" />
        </mxCell>
        <mxCell id="ydXOMkTpQAnUlT9arwQ4-253" value="+ SetMapData(): void" style="text;strokeColor=none;fillColor=none;align=left;verticalAlign=top;spacingLeft=4;spacingRight=4;overflow=hidden;rotatable=0;points=[[0,0.5],[1,0.5]];portConstraint=eastwest;" parent="ydXOMkTpQAnUlT9arwQ4-249" vertex="1">
          <mxGeometry y="130" width="267.5" height="26" as="geometry" />
        </mxCell>
        <mxCell id="ydXOMkTpQAnUlT9arwQ4-255" value="WorldGeneratorFlat:WorldGenerator" style="swimlane;fontStyle=1;childLayout=stackLayout;horizontal=1;startSize=26;fillColor=none;horizontalStack=0;resizeParent=1;resizeParentMax=0;resizeLast=0;collapsible=1;marginBottom=0;" parent="1" vertex="1">
          <mxGeometry x="950" y="2530" width="267.5" height="78" as="geometry" />
        </mxCell>
        <mxCell id="ydXOMkTpQAnUlT9arwQ4-256" value="+ WorldGeneratorFlat(int, Vector3, Transform)" style="text;strokeColor=none;fillColor=none;align=left;verticalAlign=top;spacingLeft=4;spacingRight=4;overflow=hidden;rotatable=0;points=[[0,0.5],[1,0.5]];portConstraint=eastwest;" parent="ydXOMkTpQAnUlT9arwQ4-255" vertex="1">
          <mxGeometry y="26" width="267.5" height="26" as="geometry" />
        </mxCell>
        <mxCell id="ydXOMkTpQAnUlT9arwQ4-257" value="+ GetChunk(int,int): GameObject" style="text;strokeColor=none;fillColor=none;align=left;verticalAlign=top;spacingLeft=4;spacingRight=4;overflow=hidden;rotatable=0;points=[[0,0.5],[1,0.5]];portConstraint=eastwest;" parent="ydXOMkTpQAnUlT9arwQ4-255" vertex="1">
          <mxGeometry y="52" width="267.5" height="26" as="geometry" />
        </mxCell>
        <mxCell id="ydXOMkTpQAnUlT9arwQ4-267" value="WorldLoader:WorldBuilder" style="swimlane;fontStyle=1;align=center;verticalAlign=top;childLayout=stackLayout;horizontal=1;startSize=26;horizontalStack=0;resizeParent=1;resizeParentMax=0;resizeLast=0;collapsible=1;marginBottom=0;" parent="1" vertex="1">
          <mxGeometry x="1320" y="2290" width="300" height="190" as="geometry" />
        </mxCell>
        <mxCell id="ydXOMkTpQAnUlT9arwQ4-268" value="+ MapData: MapData" style="text;strokeColor=none;fillColor=none;align=left;verticalAlign=top;spacingLeft=4;spacingRight=4;overflow=hidden;rotatable=0;points=[[0,0.5],[1,0.5]];portConstraint=eastwest;" parent="ydXOMkTpQAnUlT9arwQ4-267" vertex="1">
          <mxGeometry y="26" width="300" height="26" as="geometry" />
        </mxCell>
        <mxCell id="ydXOMkTpQAnUlT9arwQ4-271" value="" style="line;strokeWidth=1;fillColor=none;align=left;verticalAlign=middle;spacingTop=-1;spacingLeft=3;spacingRight=3;rotatable=0;labelPosition=right;points=[];portConstraint=eastwest;" parent="ydXOMkTpQAnUlT9arwQ4-267" vertex="1">
          <mxGeometry y="52" width="300" height="8" as="geometry" />
        </mxCell>
        <mxCell id="ydXOMkTpQAnUlT9arwQ4-262" value="+ WorldLoader(int, Vector3, Transform)" style="text;strokeColor=none;fillColor=none;align=left;verticalAlign=top;spacingLeft=4;spacingRight=4;overflow=hidden;rotatable=0;points=[[0,0.5],[1,0.5]];portConstraint=eastwest;" parent="ydXOMkTpQAnUlT9arwQ4-267" vertex="1">
          <mxGeometry y="60" width="300" height="26" as="geometry" />
        </mxCell>
        <mxCell id="ydXOMkTpQAnUlT9arwQ4-263" value="+ GetChunk(int,int): GameObject" style="text;strokeColor=none;fillColor=none;align=left;verticalAlign=top;spacingLeft=4;spacingRight=4;overflow=hidden;rotatable=0;points=[[0,0.5],[1,0.5]];portConstraint=eastwest;" parent="ydXOMkTpQAnUlT9arwQ4-267" vertex="1">
          <mxGeometry y="86" width="300" height="26" as="geometry" />
        </mxCell>
        <mxCell id="ydXOMkTpQAnUlT9arwQ4-264" value="+ AddChunk(int,int,CameObject): void" style="text;strokeColor=none;fillColor=none;align=left;verticalAlign=top;spacingLeft=4;spacingRight=4;overflow=hidden;rotatable=0;points=[[0,0.5],[1,0.5]];portConstraint=eastwest;" parent="ydXOMkTpQAnUlT9arwQ4-267" vertex="1">
          <mxGeometry y="112" width="300" height="26" as="geometry" />
        </mxCell>
        <mxCell id="ydXOMkTpQAnUlT9arwQ4-265" value="+ GetMap(): GameObject[][]" style="text;strokeColor=none;fillColor=none;align=left;verticalAlign=top;spacingLeft=4;spacingRight=4;overflow=hidden;rotatable=0;points=[[0,0.5],[1,0.5]];portConstraint=eastwest;" parent="ydXOMkTpQAnUlT9arwQ4-267" vertex="1">
          <mxGeometry y="138" width="300" height="26" as="geometry" />
        </mxCell>
        <mxCell id="ydXOMkTpQAnUlT9arwQ4-266" value="+ SetMapData(): void" style="text;strokeColor=none;fillColor=none;align=left;verticalAlign=top;spacingLeft=4;spacingRight=4;overflow=hidden;rotatable=0;points=[[0,0.5],[1,0.5]];portConstraint=eastwest;" parent="ydXOMkTpQAnUlT9arwQ4-267" vertex="1">
          <mxGeometry y="164" width="300" height="26" as="geometry" />
        </mxCell>
        <mxCell id="OuygbYaT5pNPhC3rYNPg-2" style="edgeStyle=orthogonalEdgeStyle;rounded=0;orthogonalLoop=1;jettySize=auto;html=1;entryX=0;entryY=0.5;entryDx=0;entryDy=0;endArrow=none;endFill=0;startArrow=block;startFill=0;" edge="1" parent="1" source="ydXOMkTpQAnUlT9arwQ4-2" target="ydXOMkTpQAnUlT9arwQ4-52">
          <mxGeometry relative="1" as="geometry" />
        </mxCell>
        <mxCell id="OuygbYaT5pNPhC3rYNPg-3" style="edgeStyle=orthogonalEdgeStyle;rounded=0;orthogonalLoop=1;jettySize=auto;html=1;entryX=0;entryY=0.5;entryDx=0;entryDy=0;endArrow=none;endFill=0;startArrow=block;startFill=0;" edge="1" parent="1">
          <mxGeometry relative="1" as="geometry">
            <mxPoint x="250" y="570" as="sourcePoint" />
            <mxPoint x="370" y="570" as="targetPoint" />
          </mxGeometry>
        </mxCell>
        <mxCell id="OuygbYaT5pNPhC3rYNPg-4" style="edgeStyle=orthogonalEdgeStyle;rounded=0;orthogonalLoop=1;jettySize=auto;html=1;entryX=0;entryY=0.5;entryDx=0;entryDy=0;endArrow=diamondThin;endFill=0;startArrow=none;startFill=0;" edge="1" parent="1">
          <mxGeometry relative="1" as="geometry">
            <mxPoint x="250" y="120" as="sourcePoint" />
            <mxPoint x="370" y="120" as="targetPoint" />
          </mxGeometry>
        </mxCell>
        <mxCell id="OuygbYaT5pNPhC3rYNPg-5" style="edgeStyle=orthogonalEdgeStyle;rounded=0;orthogonalLoop=1;jettySize=auto;html=1;entryX=0;entryY=0.25;entryDx=0;entryDy=0;endArrow=none;endFill=0;startArrow=block;startFill=0;" edge="1" parent="1" target="ydXOMkTpQAnUlT9arwQ4-59">
          <mxGeometry relative="1" as="geometry">
            <mxPoint x="550" y="80" as="sourcePoint" />
            <mxPoint x="670" y="200" as="targetPoint" />
            <Array as="points">
              <mxPoint x="550" y="80" />
              <mxPoint x="610" y="80" />
              <mxPoint x="610" y="189" />
            </Array>
          </mxGeometry>
        </mxCell>
        <mxCell id="OuygbYaT5pNPhC3rYNPg-6" style="edgeStyle=orthogonalEdgeStyle;rounded=0;orthogonalLoop=1;jettySize=auto;html=1;entryX=0;entryY=0.25;entryDx=0;entryDy=0;endArrow=none;endFill=0;startArrow=none;startFill=0;" edge="1" parent="1" target="ydXOMkTpQAnUlT9arwQ4-54">
          <mxGeometry relative="1" as="geometry">
            <mxPoint x="610" y="190" as="sourcePoint" />
            <mxPoint x="670" y="199" as="targetPoint" />
            <Array as="points">
              <mxPoint x="610" y="190" />
              <mxPoint x="610" y="80" />
            </Array>
          </mxGeometry>
        </mxCell>
        <mxCell id="OuygbYaT5pNPhC3rYNPg-7" style="edgeStyle=orthogonalEdgeStyle;rounded=0;orthogonalLoop=1;jettySize=auto;html=1;entryX=0;entryY=0.5;entryDx=0;entryDy=0;endArrow=none;endFill=0;startArrow=none;startFill=0;" edge="1" parent="1" target="ydXOMkTpQAnUlT9arwQ4-64">
          <mxGeometry relative="1" as="geometry">
            <mxPoint x="610" y="190" as="sourcePoint" />
            <mxPoint x="670" y="89.5" as="targetPoint" />
            <Array as="points">
              <mxPoint x="610" y="329" />
            </Array>
          </mxGeometry>
        </mxCell>
        <mxCell id="OuygbYaT5pNPhC3rYNPg-8" style="edgeStyle=orthogonalEdgeStyle;rounded=0;orthogonalLoop=1;jettySize=auto;html=1;entryX=0;entryY=0.5;entryDx=0;entryDy=0;endArrow=none;endFill=0;startArrow=none;startFill=0;exitX=1;exitY=0.5;exitDx=0;exitDy=0;" edge="1" parent="1" source="ydXOMkTpQAnUlT9arwQ4-51" target="ydXOMkTpQAnUlT9arwQ4-69">
          <mxGeometry relative="1" as="geometry">
            <mxPoint x="620" y="450" as="sourcePoint" />
            <mxPoint x="670" y="589" as="targetPoint" />
            <Array as="points">
              <mxPoint x="550" y="495" />
            </Array>
          </mxGeometry>
        </mxCell>
        <mxCell id="OuygbYaT5pNPhC3rYNPg-10" style="edgeStyle=orthogonalEdgeStyle;rounded=0;orthogonalLoop=1;jettySize=auto;html=1;endArrow=none;endFill=0;startArrow=none;startFill=0;exitX=0;exitY=0.5;exitDx=0;exitDy=0;" edge="1" parent="1" source="ydXOMkTpQAnUlT9arwQ4-97">
          <mxGeometry relative="1" as="geometry">
            <mxPoint x="1070.0000000000002" y="630.5" as="sourcePoint" />
            <mxPoint x="1070" y="460" as="targetPoint" />
            <Array as="points">
              <mxPoint x="1070" y="745" />
              <mxPoint x="1070" y="490" />
            </Array>
          </mxGeometry>
        </mxCell>
        <mxCell id="OuygbYaT5pNPhC3rYNPg-11" style="edgeStyle=orthogonalEdgeStyle;rounded=0;orthogonalLoop=1;jettySize=auto;html=1;endArrow=none;endFill=0;startArrow=block;startFill=0;exitX=1.01;exitY=0.17;exitDx=0;exitDy=0;exitPerimeter=0;" edge="1" parent="1" source="ydXOMkTpQAnUlT9arwQ4-66">
          <mxGeometry relative="1" as="geometry">
            <mxPoint x="1040" y="460" as="sourcePoint" />
            <mxPoint x="1160" y="460" as="targetPoint" />
            <Array as="points" />
          </mxGeometry>
        </mxCell>
        <mxCell id="OuygbYaT5pNPhC3rYNPg-13" style="edgeStyle=orthogonalEdgeStyle;rounded=0;orthogonalLoop=1;jettySize=auto;html=1;entryX=0.42;entryY=-0.001;entryDx=0;entryDy=0;endArrow=none;endFill=0;startArrow=none;startFill=0;entryPerimeter=0;exitX=0.516;exitY=1.115;exitDx=0;exitDy=0;exitPerimeter=0;" edge="1" parent="1" source="ydXOMkTpQAnUlT9arwQ4-108" target="ydXOMkTpQAnUlT9arwQ4-113">
          <mxGeometry relative="1" as="geometry">
            <mxPoint x="463" y="605" as="sourcePoint" />
            <mxPoint x="717" y="505" as="targetPoint" />
            <Array as="points">
              <mxPoint x="463" y="610" />
              <mxPoint x="463" y="610" />
            </Array>
          </mxGeometry>
        </mxCell>
        <mxCell id="OuygbYaT5pNPhC3rYNPg-17" style="edgeStyle=orthogonalEdgeStyle;rounded=0;orthogonalLoop=1;jettySize=auto;html=1;startArrow=block;startFill=0;endArrow=diamondThin;endFill=0;entryX=0.49;entryY=1.115;entryDx=0;entryDy=0;entryPerimeter=0;exitX=0.517;exitY=0;exitDx=0;exitDy=0;exitPerimeter=0;" edge="1" parent="1" source="ydXOMkTpQAnUlT9arwQ4-173" target="ydXOMkTpQAnUlT9arwQ4-162">
          <mxGeometry relative="1" as="geometry">
            <mxPoint x="1232" y="1650" as="targetPoint" />
            <mxPoint x="830" y="1780" as="sourcePoint" />
            <Array as="points">
              <mxPoint x="844" y="1780" />
              <mxPoint x="843" y="1780" />
            </Array>
          </mxGeometry>
        </mxCell>
        <mxCell id="OuygbYaT5pNPhC3rYNPg-18" style="edgeStyle=orthogonalEdgeStyle;rounded=0;orthogonalLoop=1;jettySize=auto;html=1;exitX=0;exitY=0.5;exitDx=0;exitDy=0;entryX=1;entryY=0.5;entryDx=0;entryDy=0;startArrow=none;startFill=0;endArrow=classic;endFill=1;" edge="1" parent="1" source="ydXOMkTpQAnUlT9arwQ4-174" target="ydXOMkTpQAnUlT9arwQ4-164">
          <mxGeometry relative="1" as="geometry">
            <Array as="points">
              <mxPoint x="730" y="1829" />
            </Array>
          </mxGeometry>
        </mxCell>
        <mxCell id="OuygbYaT5pNPhC3rYNPg-19" style="edgeStyle=orthogonalEdgeStyle;rounded=0;orthogonalLoop=1;jettySize=auto;html=1;exitX=0;exitY=0.5;exitDx=0;exitDy=0;entryX=1;entryY=0.5;entryDx=0;entryDy=0;startArrow=none;startFill=0;endArrow=classic;endFill=1;" edge="1" parent="1" source="ydXOMkTpQAnUlT9arwQ4-151" target="ydXOMkTpQAnUlT9arwQ4-184">
          <mxGeometry relative="1" as="geometry">
            <mxPoint x="707" y="1571.9999999999995" as="sourcePoint" />
            <mxPoint x="484.08" y="1544.728" as="targetPoint" />
            <Array as="points">
              <mxPoint x="710" y="1499" />
              <mxPoint x="710" y="1499" />
            </Array>
          </mxGeometry>
        </mxCell>
        <mxCell id="OuygbYaT5pNPhC3rYNPg-20" style="edgeStyle=orthogonalEdgeStyle;rounded=0;orthogonalLoop=1;jettySize=auto;html=1;endArrow=none;endFill=0;startArrow=none;startFill=0;exitX=1.007;exitY=0.788;exitDx=0;exitDy=0;exitPerimeter=0;entryX=0.5;entryY=0;entryDx=0;entryDy=0;" edge="1" parent="1" source="ydXOMkTpQAnUlT9arwQ4-138" target="ydXOMkTpQAnUlT9arwQ4-150">
          <mxGeometry relative="1" as="geometry">
            <mxPoint x="790.0099999999999" y="1280" as="sourcePoint" />
            <mxPoint x="847.13" y="1315.01" as="targetPoint" />
            <Array as="points">
              <mxPoint x="845" y="1078" />
            </Array>
          </mxGeometry>
        </mxCell>
        <mxCell id="OuygbYaT5pNPhC3rYNPg-23" style="edgeStyle=orthogonalEdgeStyle;rounded=0;orthogonalLoop=1;jettySize=auto;html=1;startArrow=block;startFill=0;endArrow=none;endFill=0;entryX=0.5;entryY=0;entryDx=0;entryDy=0;exitX=0.514;exitY=1.089;exitDx=0;exitDy=0;exitPerimeter=0;" edge="1" parent="1" source="ydXOMkTpQAnUlT9arwQ4-214" target="ydXOMkTpQAnUlT9arwQ4-249">
          <mxGeometry relative="1" as="geometry">
            <mxPoint x="1093.75" y="2540" as="targetPoint" />
            <mxPoint x="1093.7391304347825" y="2456" as="sourcePoint" />
            <Array as="points">
              <mxPoint x="1284" y="2250" />
              <mxPoint x="1084" y="2250" />
            </Array>
          </mxGeometry>
        </mxCell>
        <mxCell id="OuygbYaT5pNPhC3rYNPg-24" style="edgeStyle=orthogonalEdgeStyle;rounded=0;orthogonalLoop=1;jettySize=auto;html=1;startArrow=none;startFill=0;endArrow=none;endFill=0;entryX=0.523;entryY=-0.002;entryDx=0;entryDy=0;entryPerimeter=0;" edge="1" parent="1" target="ydXOMkTpQAnUlT9arwQ4-267">
          <mxGeometry relative="1" as="geometry">
            <mxPoint x="1093.75" y="2300" as="targetPoint" />
            <mxPoint x="1280" y="2250" as="sourcePoint" />
            <Array as="points">
              <mxPoint x="1477" y="2250" />
            </Array>
          </mxGeometry>
        </mxCell>
        <mxCell id="OuygbYaT5pNPhC3rYNPg-25" style="edgeStyle=orthogonalEdgeStyle;rounded=0;orthogonalLoop=1;jettySize=auto;html=1;startArrow=none;startFill=0;endArrow=classic;endFill=1;entryX=0.5;entryY=0;entryDx=0;entryDy=0;exitX=0.5;exitY=1;exitDx=0;exitDy=0;" edge="1" parent="1" source="ydXOMkTpQAnUlT9arwQ4-228" target="ydXOMkTpQAnUlT9arwQ4-203">
          <mxGeometry relative="1" as="geometry">
            <mxPoint x="1326.9" y="1930" as="targetPoint" />
            <mxPoint x="1130" y="1890.38" as="sourcePoint" />
            <Array as="points" />
          </mxGeometry>
        </mxCell>
        <mxCell id="OuygbYaT5pNPhC3rYNPg-26" style="edgeStyle=orthogonalEdgeStyle;rounded=0;orthogonalLoop=1;jettySize=auto;html=1;startArrow=none;startFill=0;endArrow=classic;endFill=1;entryX=0.5;entryY=0;entryDx=0;entryDy=0;exitX=0.503;exitY=1.109;exitDx=0;exitDy=0;exitPerimeter=0;" edge="1" parent="1" source="ydXOMkTpQAnUlT9arwQ4-227" target="ydXOMkTpQAnUlT9arwQ4-228">
          <mxGeometry relative="1" as="geometry">
            <mxPoint x="1290" y="1940" as="targetPoint" />
            <mxPoint x="1290" y="1876" as="sourcePoint" />
            <Array as="points">
              <mxPoint x="1281" y="1670" />
              <mxPoint x="1280" y="1670" />
            </Array>
          </mxGeometry>
        </mxCell>
        <mxCell id="OuygbYaT5pNPhC3rYNPg-27" style="edgeStyle=orthogonalEdgeStyle;rounded=0;orthogonalLoop=1;jettySize=auto;html=1;startArrow=none;startFill=0;endArrow=classic;endFill=1;exitX=0;exitY=0.5;exitDx=0;exitDy=0;" edge="1" parent="1" source="ydXOMkTpQAnUlT9arwQ4-189">
          <mxGeometry relative="1" as="geometry">
            <mxPoint x="1730" y="1969" as="targetPoint" />
            <mxPoint x="1290" y="1876" as="sourcePoint" />
            <Array as="points" />
          </mxGeometry>
        </mxCell>
        <mxCell id="OuygbYaT5pNPhC3rYNPg-28" style="edgeStyle=orthogonalEdgeStyle;rounded=0;orthogonalLoop=1;jettySize=auto;html=1;startArrow=none;startFill=0;endArrow=classic;endFill=1;entryX=1;entryY=0.5;entryDx=0;entryDy=0;" edge="1" parent="1" target="ydXOMkTpQAnUlT9arwQ4-204">
          <mxGeometry relative="1" as="geometry">
            <mxPoint x="1740" y="1979" as="targetPoint" />
            <mxPoint x="1500" y="1969" as="sourcePoint" />
            <Array as="points" />
          </mxGeometry>
        </mxCell>
      </root>
    </mxGraphModel>
  </diagram>
</mxfile>
